<?xml version="1.0" encoding="utf-8"?>
<!-- Generator: Adobe Illustrator 10.0, SVG Export Plug-In . SVG Version: 3.0.0 Build 77)  -->
<!DOCTYPE svg PUBLIC "-//W3C//DTD SVG 1.0//EN"    "http://www.w3.org/TR/2001/REC-SVG-20010904/DTD/svg10.dtd" [
	<!ENTITY ns_flows "http://ns.adobe.com/Flows/1.0/">
	<!ENTITY ns_extend "http://ns.adobe.com/Extensibility/1.0/">
	<!ENTITY ns_ai "http://ns.adobe.com/AdobeIllustrator/10.0/">
	<!ENTITY ns_graphs "http://ns.adobe.com/Graphs/1.0/">
	<!ENTITY ns_vars "http://ns.adobe.com/Variables/1.0/">
	<!ENTITY ns_imrep "http://ns.adobe.com/ImageReplacement/1.0/">
	<!ENTITY ns_sfw "http://ns.adobe.com/SaveForWeb/1.0/">
	<!ENTITY ns_custom "http://ns.adobe.com/GenericCustomNamespace/1.0/">
	<!ENTITY ns_adobe_xpath "http://ns.adobe.com/XPath/1.0/">
	<!ENTITY ns_svg "http://www.w3.org/2000/svg">
	<!ENTITY ns_xlink "http://www.w3.org/1999/xlink">
]>
<svg 
	 xmlns:x="&ns_extend;" xmlns:i="&ns_ai;" xmlns:graph="&ns_graphs;" i:viewOrigin="42.5195 698.0024" i:rulerOrigin="0 0" i:pageBounds="0 841.8896 595.2754 0"
	 xmlns="&ns_svg;" xmlns:xlink="&ns_xlink;" xmlns:a="http://ns.adobe.com/AdobeSVGViewerExtensions/3.0/"
	 width="429.449" height="163.672" viewBox="0 0 429.449 163.672" overflow="visible" enable-background="new 0 0 429.449 163.672"
	 xml:space="preserve">
	<metadata>
		<variableSets  xmlns="&ns_vars;">
			<variableSet  varSetName="binding1" locked="none">
				<variables></variables>
				<v:sampleDataSets  xmlns="&ns_custom;" xmlns:v="&ns_vars;"></v:sampleDataSets>
			</variableSet>
		</variableSets>
		<sfw  xmlns="&ns_sfw;">
			<slices></slices>
			<sliceSourceBounds  x="42.52" y="534.33" width="429.449" height="163.672" bottomLeftOrigin="true"></sliceSourceBounds>
		</sfw>
	</metadata>
	<g id="background" i:layer="yes" i:dimmedPercent="3" i:rgbTrio="#4F008000FFFF">
		<path i:knockout="Off" fill="none" stroke="#C8D4E3" stroke-width="0.5" d="M14.173,10.601v70.866"/>
		<path i:knockout="Off" fill="none" stroke="#C8D4E3" stroke-width="0.5" d="M99.213,10.601v70.866"/>
		<path i:knockout="Off" fill="none" stroke="#C8D4E3" stroke-width="0.5" d="M184.252,10.601v70.866"/>
		<path i:knockout="Off" fill="none" stroke="#C8D4E3" stroke-width="0.5" d="M269.291,10.601v70.866"/>
		<path i:knockout="Off" fill="none" stroke="#C8D4E3" stroke-width="0.5" d="M354.329,123.987v39.685"/>
		<path i:knockout="Off" fill="none" stroke="#C8D4E3" stroke-width="0.5" d="M354.331,10.601v70.866"/>
		<path i:knockout="Off" fill="none" stroke="#C8D4E3" stroke-width="0.5" d="M42.52,10.601v70.866"/>
		<path i:knockout="Off" fill="none" stroke="#C8D4E3" stroke-width="0.5" d="M127.56,10.601v70.866"/>
		<path i:knockout="Off" fill="none" stroke="#C8D4E3" stroke-width="0.5" d="M212.599,10.601v70.866"/>
		<path i:knockout="Off" fill="none" stroke="#C8D4E3" stroke-width="0.5" d="M297.639,10.601v70.866"/>
		<path i:knockout="Off" fill="none" stroke="#C8D4E3" stroke-width="0.5" d="M382.679,10.601v70.866"/>
		<path i:knockout="Off" fill="none" stroke="#15506E" d="M70.866,10.601v70.866"/>
		<path i:knockout="Off" fill="none" stroke="#15506E" d="M155.906,10.601v70.866"/>
		<path i:knockout="Off" fill="none" stroke="#15506E" d="M240.945,10.601v70.866"/>
		<path i:knockout="Off" fill="none" stroke="#15506E" d="M240.945,138.16v21.26"/>
		<path i:knockout="Off" fill="none" stroke="#C8D4E3" stroke-width="0.5" d="M325.982,123.987v39.685"/>
		<path i:knockout="Off" fill="none" stroke="#15506E" d="M325.984,10.601v70.866"/>
		<path i:knockout="Off" fill="none" stroke="#C8D4E3" stroke-width="0.5" d="M411.024,10.601v70.866"/>
		<path i:knockout="Off" fill="none" stroke="#15506E" d="M325.983,143.829h28.346"/>
		<path i:knockout="Off" fill="none" stroke="#15506E" d="M354.329,143.829h14.173"/>
		<path i:knockout="Off" fill="#15506E" d="M363.753,140.96l-10.841,2.904l10.841,2.905V140.96z"/>
		<path i:knockout="Off" fill="none" stroke="#15506E" d="M311.81,143.829h14.173"/>
		<path i:knockout="Off" fill="#15506E" d="M316.56,146.698l10.841-2.904l-10.841-2.905V146.698z"/>
		<path i:knockout="Off" fill="#FFFFFF" stroke="#15506E" d="M325.983,136.743v14.173"/>
		<path i:knockout="Off" fill="#FFFFFF" stroke="#15506E" d="M354.33,136.743v14.173"/>
		<g i:knockout="Off">
			<path i:knockout="Off" fill="#15506E" d="M377.777,147.14v-4.941l-1.313,0.816v-0.828c0.331-0.166,0.684-0.395,1.058-0.686
				s0.664-0.568,0.869-0.83h0.261v6.469H377.777z"/>
			<path i:knockout="Off" fill="#15506E" d="M387.959,147.234h-0.219l-1.367-3.203l-1.383,3.203h-0.219l-1.688-4.813h0.891
				l1.008,3.094l1.258-3.094h0.219l1.289,3.094l1.07-3.094h0.828L387.959,147.234z"/>
			<path i:knockout="Off" fill="#15506E" d="M394.262,144.875h-3.387c0,0.551,0.149,0.974,0.45,1.27
				c0.266,0.258,0.606,0.387,1.024,0.387c0.476,0,0.872-0.141,1.19-0.422l0.351,0.609c-0.129,0.128-0.326,0.239-0.592,0.332
				c-0.332,0.122-0.703,0.184-1.111,0.184c-0.589,0-1.09-0.201-1.501-0.603c-0.458-0.443-0.687-1.039-0.687-1.788
				c0-0.777,0.234-1.401,0.705-1.871c0.422-0.419,0.92-0.629,1.496-0.629c0.669,0,1.193,0.189,1.574,0.569
				c0.368,0.365,0.553,0.848,0.553,1.451C394.328,144.548,394.306,144.719,394.262,144.875z M392.244,143.046
				c-0.37,0-0.681,0.121-0.932,0.362c-0.239,0.229-0.375,0.515-0.406,0.856h2.594c0-0.338-0.105-0.621-0.315-0.848
				C392.954,143.17,392.641,143.046,392.244,143.046z"/>
			<path i:knockout="Off" fill="#15506E" d="M399.17,144.875h-3.387c0,0.551,0.15,0.974,0.451,1.27
				c0.266,0.258,0.606,0.387,1.023,0.387c0.477,0,0.873-0.141,1.191-0.422l0.35,0.609c-0.129,0.128-0.325,0.239-0.591,0.332
				c-0.333,0.122-0.703,0.184-1.111,0.184c-0.59,0-1.09-0.201-1.501-0.603c-0.459-0.443-0.688-1.039-0.688-1.788
				c0-0.777,0.235-1.401,0.706-1.871c0.421-0.419,0.919-0.629,1.495-0.629c0.67,0,1.194,0.189,1.574,0.569
				c0.368,0.365,0.553,0.848,0.553,1.451C399.236,144.548,399.215,144.719,399.17,144.875z M397.152,143.046
				c-0.37,0-0.681,0.121-0.932,0.362c-0.238,0.229-0.374,0.515-0.406,0.856h2.594c0-0.338-0.105-0.621-0.314-0.848
				C397.863,143.17,397.549,143.046,397.152,143.046z"/>
			<path i:knockout="Off" fill="#15506E" d="M403.16,147.14l-1.473-2.354l-0.73,0.751v1.603h-0.828V140.5h0.828v4.116l1.813-2.179
				h0.969l-1.509,1.787l1.837,2.916H403.16z"/>
		</g>
		<path i:knockout="Off" fill="#15506E" d="M63.071,135.327H21.968v-11.339h41.103V135.327z"/>
		<path i:knockout="Off" fill="#15506E" d="M255.118,163.671h-21.26v-11.339h21.26V163.671z"/>
		<path i:knockout="Off" fill="#FF5C28" stroke="#15506E" stroke-width="1.4173" d="M62.362,148.791H22.677v-9.921h39.685V148.791z"
			/>
		<path i:knockout="Off" fill="#FF977B" stroke="#15506E" stroke-width="1.4173" d="M62.362,162.963H22.677v-9.921h39.685V162.963z"
			/>
		<path i:knockout="Off" fill="#FF5C28" d="M255.119,162.254h-14.173v-8.504h14.173V162.254z"/>
		<g i:knockout="Off">
			<path i:knockout="Off" fill="#15506E" d="M218.4,127.325v1.781h2.266v0.75H218.4v3.109h-0.875v-6.438h3.969v0.797H218.4z"/>
			<path i:knockout="Off" fill="#15506E" d="M224.731,129.061c-0.182-0.126-0.364-0.189-0.548-0.189
				c-0.295,0-0.553,0.137-0.774,0.41s-0.331,0.603-0.331,0.987v2.696h-0.828v-4.703h0.828v0.75c0.304-0.563,0.755-0.844,1.355-0.844
				c0.149,0,0.364,0.026,0.645,0.079L224.731,129.061z"/>
			<path i:knockout="Off" fill="#15506E" d="M229.635,130.7h-3.387c0,0.551,0.15,0.974,0.451,1.27
				c0.265,0.258,0.607,0.387,1.024,0.387c0.476,0,0.873-0.141,1.19-0.422l0.351,0.609c-0.129,0.128-0.326,0.239-0.591,0.332
				c-0.333,0.123-0.704,0.184-1.112,0.184c-0.589,0-1.09-0.201-1.501-0.603c-0.458-0.443-0.687-1.039-0.687-1.787
				c0-0.778,0.235-1.401,0.706-1.871c0.421-0.419,0.919-0.629,1.495-0.629c0.669,0,1.194,0.19,1.574,0.569
				c0.368,0.365,0.553,0.849,0.553,1.451C229.701,130.374,229.679,130.544,229.635,130.7z M227.617,128.872
				c-0.37,0-0.681,0.121-0.932,0.362c-0.239,0.23-0.375,0.516-0.406,0.857h2.594c0-0.338-0.105-0.621-0.315-0.848
				C228.327,128.996,228.014,128.872,227.617,128.872z"/>
			<path i:knockout="Off" fill="#15506E" d="M234.544,130.7h-3.388c0,0.551,0.15,0.974,0.451,1.27
				c0.266,0.258,0.606,0.387,1.024,0.387c0.476,0,0.872-0.141,1.19-0.422l0.35,0.609c-0.128,0.128-0.325,0.239-0.591,0.332
				c-0.333,0.123-0.703,0.184-1.111,0.184c-0.589,0-1.09-0.201-1.501-0.603c-0.458-0.443-0.688-1.039-0.688-1.787
				c0-0.778,0.235-1.401,0.706-1.871c0.421-0.419,0.919-0.629,1.496-0.629c0.669,0,1.194,0.19,1.574,0.569
				c0.368,0.365,0.552,0.849,0.552,1.451C234.609,130.374,234.588,130.544,234.544,130.7z M232.526,128.872
				c-0.371,0-0.681,0.121-0.932,0.362c-0.239,0.23-0.375,0.516-0.407,0.857h2.594c0-0.338-0.104-0.621-0.314-0.848
				C233.236,128.996,232.923,128.872,232.526,128.872z"/>
			<path i:knockout="Off" fill="#15506E" d="M236.394,132.216h2.609v0.75h-3.922v-0.219l2.672-3.734h-2.625v-0.75h3.844v0.237
				L236.394,132.216z"/>
			<path i:knockout="Off" fill="#15506E" d="M243.724,130.7h-3.387c0,0.551,0.15,0.974,0.451,1.27
				c0.265,0.258,0.607,0.387,1.024,0.387c0.476,0,0.873-0.141,1.19-0.422l0.351,0.609c-0.129,0.128-0.326,0.239-0.591,0.332
				c-0.333,0.123-0.704,0.184-1.112,0.184c-0.589,0-1.09-0.201-1.501-0.603c-0.458-0.443-0.687-1.039-0.687-1.787
				c0-0.778,0.235-1.401,0.706-1.871c0.421-0.419,0.919-0.629,1.495-0.629c0.669,0,1.194,0.19,1.574,0.569
				c0.368,0.365,0.553,0.849,0.553,1.451C243.79,130.374,243.768,130.544,243.724,130.7z M241.706,128.872
				c-0.37,0-0.681,0.121-0.932,0.362c-0.239,0.23-0.375,0.516-0.406,0.857h2.594c0-0.338-0.105-0.621-0.315-0.848
				C242.416,128.996,242.103,128.872,241.706,128.872z"/>
			<path i:knockout="Off" fill="#15506E" d="M250.379,132.966v-0.347c-0.291,0.284-0.713,0.425-1.267,0.425
				c-0.59,0-1.067-0.21-1.434-0.632s-0.549-0.984-0.549-1.687c0-0.706,0.211-1.308,0.633-1.808c0.422-0.499,0.925-0.749,1.509-0.749
				c0.486,0,0.856,0.114,1.108,0.343v-2.187h0.828v6.641H250.379z M250.379,129.346c-0.212-0.316-0.501-0.474-0.868-0.474
				c-0.45,0-0.813,0.167-1.091,0.5s-0.416,0.757-0.416,1.272c0,1.131,0.517,1.697,1.551,1.697c0.132,0,0.291-0.042,0.476-0.125
				c0.186-0.083,0.301-0.171,0.349-0.265V129.346z"/>
			<path i:knockout="Off" fill="#15506E" d="M255.081,132.435c-0.334,0.417-0.847,0.625-1.537,0.625
				c-0.37,0-0.691-0.134-0.963-0.402s-0.407-0.602-0.407-1c0-0.478,0.209-0.882,0.628-1.212c0.418-0.33,0.952-0.495,1.602-0.495
				c0.176,0,0.376,0.037,0.599,0.109c0-0.76-0.34-1.141-1.021-1.141c-0.522,0-0.924,0.141-1.205,0.422l-0.353-0.703
				c0.158-0.128,0.377-0.239,0.656-0.331s0.547-0.138,0.801-0.138c0.682,0,1.177,0.155,1.486,0.465
				c0.309,0.31,0.463,0.803,0.463,1.479v1.685c0,0.412,0.125,0.688,0.375,0.825v0.422c-0.34,0-0.594-0.047-0.762-0.142
				S255.154,132.652,255.081,132.435z M255.002,130.653c-0.266-0.052-0.451-0.078-0.558-0.078c-0.425,0-0.771,0.108-1.04,0.325
				s-0.403,0.473-0.403,0.769c0,0.489,0.291,0.734,0.872,0.734c0.425,0,0.801-0.203,1.128-0.609V130.653z"/>
			<path i:knockout="Off" fill="#15506E" d="M257.434,128.919h-0.547v-0.656h0.547v-0.99l0.828-0.323v1.313h1.297v0.656h-1.297
				v2.341c0,0.396,0.067,0.678,0.201,0.846c0.135,0.167,0.351,0.25,0.648,0.25c0.215,0,0.438-0.052,0.668-0.156l0.123,0.729
				c-0.346,0.087-0.726,0.131-1.14,0.131c-0.372,0-0.688-0.138-0.944-0.416c-0.256-0.277-0.385-0.627-0.385-1.05V128.919z"/>
			<path i:knockout="Off" fill="#15506E" d="M264.655,130.7h-3.388c0,0.551,0.15,0.974,0.451,1.27
				c0.266,0.258,0.606,0.387,1.024,0.387c0.476,0,0.872-0.141,1.19-0.422l0.35,0.609c-0.128,0.128-0.325,0.239-0.591,0.332
				c-0.333,0.123-0.703,0.184-1.111,0.184c-0.589,0-1.09-0.201-1.501-0.603c-0.458-0.443-0.688-1.039-0.688-1.787
				c0-0.778,0.235-1.401,0.706-1.871c0.421-0.419,0.919-0.629,1.495-0.629c0.67,0,1.194,0.19,1.574,0.569
				c0.369,0.365,0.553,0.849,0.553,1.451C264.721,130.374,264.699,130.544,264.655,130.7z M262.638,128.872
				c-0.37,0-0.681,0.121-0.932,0.362c-0.239,0.23-0.375,0.516-0.407,0.857h2.594c0-0.338-0.104-0.621-0.314-0.848
				C263.348,128.996,263.034,128.872,262.638,128.872z"/>
		</g>
		<g i:knockout="Off">
			<path i:knockout="Off" fill="#15506E" d="M75.694,133.061l-3.344-4.719v4.625h-0.828v-6.438h0.359l3.25,4.453v-4.453h0.828v6.531
				H75.694z"/>
			<path i:knockout="Off" fill="#15506E" d="M76.891,130.604c0-0.728,0.195-1.315,0.585-1.763s0.904-0.671,1.542-0.671
				c0.673,0,1.194,0.215,1.566,0.645s0.557,1.026,0.557,1.789c0,0.761-0.19,1.36-0.57,1.799c-0.38,0.438-0.897,0.658-1.553,0.658
				c-0.669,0-1.191-0.221-1.565-0.665C77.078,131.953,76.891,131.356,76.891,130.604z M77.766,130.604
				c0,1.18,0.417,1.769,1.252,1.769c0.39,0,0.695-0.158,0.916-0.474c0.222-0.315,0.332-0.747,0.332-1.295
				c0-1.164-0.416-1.747-1.248-1.747c-0.381,0-0.685,0.155-0.912,0.465S77.766,130.06,77.766,130.604z"/>
			<path i:knockout="Off" fill="#15506E" d="M84.577,129.062c-0.182-0.126-0.364-0.189-0.549-0.189c-0.295,0-0.553,0.137-0.774,0.41
				s-0.331,0.603-0.331,0.987v2.696h-0.828v-4.703h0.828v0.75c0.304-0.563,0.755-0.844,1.355-0.844c0.149,0,0.364,0.026,0.645,0.079
				L84.577,129.062z"/>
			<path i:knockout="Off" fill="#15506E" d="M90.968,132.967v-2.981c0-0.742-0.321-1.113-0.963-1.113
				c-0.203,0-0.392,0.063-0.567,0.187s-0.296,0.266-0.36,0.424v3.483H88.25v-3.346c0-0.231-0.087-0.414-0.262-0.547
				s-0.405-0.2-0.692-0.2c-0.167,0-0.345,0.065-0.535,0.195c-0.188,0.13-0.323,0.273-0.402,0.43v3.469h-0.828v-4.703h0.543
				l0.276,0.547c0.321-0.427,0.723-0.641,1.205-0.641c0.672,0,1.143,0.208,1.411,0.625c0.094-0.178,0.268-0.326,0.521-0.446
				c0.254-0.119,0.516-0.179,0.784-0.179c0.485,0,0.86,0.145,1.126,0.433c0.266,0.289,0.399,0.694,0.399,1.216v3.148H90.968z"/>
			<path i:knockout="Off" fill="#15506E" d="M95.674,132.436c-0.335,0.417-0.847,0.625-1.537,0.625c-0.37,0-0.691-0.134-0.962-0.402
				s-0.407-0.602-0.407-1c0-0.478,0.209-0.882,0.627-1.212c0.419-0.33,0.952-0.495,1.602-0.495c0.176,0,0.376,0.037,0.599,0.109
				c0-0.76-0.34-1.141-1.021-1.141c-0.521,0-0.924,0.141-1.205,0.422l-0.352-0.703c0.158-0.128,0.376-0.239,0.656-0.331
				c0.279-0.092,0.546-0.138,0.801-0.138c0.682,0,1.177,0.155,1.485,0.465c0.309,0.31,0.463,0.803,0.463,1.479v1.685
				c0,0.412,0.125,0.688,0.375,0.825v0.422c-0.34,0-0.594-0.047-0.762-0.142C95.867,132.809,95.747,132.653,95.674,132.436z
				 M95.595,130.654c-0.266-0.052-0.452-0.078-0.558-0.078c-0.425,0-0.771,0.108-1.04,0.325s-0.403,0.473-0.403,0.769
				c0,0.489,0.291,0.734,0.872,0.734c0.425,0,0.801-0.203,1.128-0.609V130.654z"/>
			<path i:knockout="Off" fill="#15506E" d="M97.792,131.639v-5.313h0.828v5.17c0,0.252,0.072,0.451,0.216,0.596
				c0.144,0.145,0.332,0.218,0.565,0.218v0.75C98.329,133.061,97.792,132.586,97.792,131.639z"/>
			<path i:knockout="Off" fill="#15506E" d="M106.658,128.639l-0.416,0.594c-0.085-0.085-0.236-0.167-0.453-0.244
				c-0.217-0.077-0.43-0.116-0.64-0.116c-0.457,0-0.82,0.16-1.089,0.478s-0.402,0.755-0.402,1.311c0,0.552,0.136,0.973,0.408,1.262
				c0.272,0.29,0.649,0.434,1.132,0.434c0.374,0,0.751-0.146,1.131-0.438l0.329,0.703c-0.447,0.292-1.001,0.438-1.661,0.438
				c-0.641,0-1.169-0.215-1.587-0.647s-0.627-1.016-0.627-1.752c0-0.751,0.218-1.354,0.655-1.81
				c0.437-0.455,1.035-0.682,1.794-0.682c0.244,0,0.509,0.051,0.794,0.153S106.522,128.531,106.658,128.639z"/>
			<path i:knockout="Off" fill="#15506E" d="M110.458,132.967v-2.959c0-0.352-0.087-0.629-0.261-0.831s-0.419-0.303-0.734-0.303
				c-0.203,0-0.407,0.06-0.612,0.178s-0.362,0.257-0.471,0.415v3.5h-0.828v-6.641h0.828v2.45c0.111-0.173,0.291-0.317,0.539-0.433
				c0.248-0.115,0.505-0.173,0.769-0.173c0.499,0,0.891,0.165,1.174,0.493s0.425,0.776,0.425,1.345v2.959H110.458z"/>
			<path i:knockout="Off" fill="#15506E" d="M116.419,130.701h-3.387c0,0.551,0.15,0.974,0.451,1.27
				c0.266,0.258,0.607,0.387,1.024,0.387c0.476,0,0.872-0.141,1.19-0.422l0.35,0.609c-0.128,0.128-0.326,0.239-0.591,0.332
				c-0.333,0.123-0.704,0.184-1.112,0.184c-0.589,0-1.09-0.201-1.501-0.603c-0.458-0.443-0.687-1.039-0.687-1.787
				c0-0.778,0.235-1.401,0.706-1.871c0.421-0.419,0.919-0.629,1.496-0.629c0.669,0,1.194,0.19,1.574,0.569
				c0.368,0.365,0.552,0.849,0.552,1.451C116.485,130.375,116.463,130.545,116.419,130.701z M114.401,128.873
				c-0.37,0-0.681,0.121-0.932,0.362c-0.239,0.23-0.375,0.516-0.407,0.857h2.594c0-0.338-0.105-0.621-0.315-0.848
				C115.111,128.997,114.798,128.873,114.401,128.873z"/>
			<path i:knockout="Off" fill="#15506E" d="M120.94,128.639l-0.416,0.594c-0.085-0.085-0.236-0.167-0.453-0.244
				c-0.217-0.077-0.43-0.116-0.64-0.116c-0.457,0-0.82,0.16-1.089,0.478s-0.402,0.755-0.402,1.311c0,0.552,0.136,0.973,0.408,1.262
				c0.272,0.29,0.649,0.434,1.132,0.434c0.374,0,0.751-0.146,1.131-0.438l0.329,0.703c-0.447,0.292-1.001,0.438-1.661,0.438
				c-0.641,0-1.169-0.215-1.587-0.647s-0.627-1.016-0.627-1.752c0-0.751,0.218-1.354,0.655-1.81
				c0.437-0.455,1.035-0.682,1.794-0.682c0.244,0,0.509,0.051,0.794,0.153S120.805,128.531,120.94,128.639z"/>
			<path i:knockout="Off" fill="#15506E" d="M124.865,132.967l-1.473-2.354l-0.73,0.751v1.603h-0.828v-6.641h0.828v4.116
				l1.813-2.178h0.969l-1.51,1.788l1.838,2.916H124.865z"/>
			<path i:knockout="Off" fill="#15506E" d="M126.483,130.748v-0.766h1.875v0.766H126.483z"/>
			<path i:knockout="Off" fill="#15506E" d="M130.084,132.967v-4h-0.641v-0.703h1.469v4.703H130.084z M130.535,126.482
				c0.144,0,0.266,0.05,0.367,0.151s0.151,0.222,0.151,0.362c0,0.144-0.05,0.266-0.151,0.367s-0.223,0.151-0.367,0.151
				c-0.141,0-0.261-0.05-0.362-0.151s-0.151-0.223-0.151-0.367c0-0.143,0.049-0.265,0.149-0.364
				C130.271,126.532,130.392,126.482,130.535,126.482z"/>
			<path i:knockout="Off" fill="#15506E" d="M135.135,132.967v-2.74c0-0.501-0.076-0.852-0.227-1.053s-0.404-0.301-0.758-0.301
				c-0.191,0-0.391,0.057-0.599,0.171s-0.368,0.255-0.479,0.422v3.5h-0.828v-4.703h0.569l0.263,0.606
				c0.274-0.467,0.723-0.7,1.345-0.7c1.027,0,1.542,0.627,1.542,1.882v2.915H135.135z"/>
			<path i:knockout="Off" fill="#15506E" d="M142.418,129.062c-0.182-0.126-0.364-0.189-0.549-0.189
				c-0.295,0-0.553,0.137-0.774,0.41s-0.331,0.603-0.331,0.987v2.696h-0.828v-4.703h0.828v0.75c0.304-0.563,0.755-0.844,1.355-0.844
				c0.149,0,0.364,0.026,0.645,0.079L142.418,129.062z"/>
			<path i:knockout="Off" fill="#15506E" d="M144.153,128.264v3.003c0,0.727,0.315,1.09,0.946,1.09c0.276,0,0.528-0.079,0.757-0.237
				c0.229-0.158,0.38-0.341,0.454-0.55v-3.307h0.828v4.703h-0.828v-0.65c-0.094,0.185-0.282,0.355-0.564,0.51
				c-0.282,0.156-0.559,0.234-0.827,0.234c-0.515,0-0.909-0.148-1.183-0.444c-0.274-0.296-0.411-0.717-0.411-1.262v-3.091H144.153z"
				/>
			<path i:knockout="Off" fill="#15506E" d="M148.352,131.639v-5.313h0.828v5.17c0,0.252,0.072,0.451,0.216,0.596
				c0.145,0.145,0.333,0.218,0.565,0.218v0.75C148.888,133.061,148.352,132.586,148.352,131.639z"/>
			<path i:knockout="Off" fill="#15506E" d="M154.893,130.701h-3.387c0,0.551,0.15,0.974,0.451,1.27
				c0.265,0.258,0.606,0.387,1.024,0.387c0.476,0,0.873-0.141,1.19-0.422l0.35,0.609c-0.128,0.128-0.325,0.239-0.591,0.332
				c-0.333,0.123-0.703,0.184-1.111,0.184c-0.59,0-1.09-0.201-1.501-0.603c-0.458-0.443-0.687-1.039-0.687-1.787
				c0-0.778,0.235-1.401,0.706-1.871c0.421-0.419,0.919-0.629,1.495-0.629c0.67,0,1.194,0.19,1.574,0.569
				c0.368,0.365,0.553,0.849,0.553,1.451C154.959,130.375,154.937,130.545,154.893,130.701z M152.875,128.873
				c-0.371,0-0.681,0.121-0.932,0.362c-0.239,0.23-0.375,0.516-0.407,0.857h2.594c0-0.338-0.105-0.621-0.315-0.848
				C153.585,128.997,153.272,128.873,152.875,128.873z"/>
			<path i:knockout="Off" fill="#15506E" d="M155.54,132.693l0.293-0.789c0.465,0.302,0.839,0.453,1.123,0.453
				c0.514,0,0.771-0.217,0.771-0.652c0-0.312-0.249-0.579-0.745-0.802c-0.383-0.176-0.641-0.31-0.773-0.4
				c-0.133-0.091-0.249-0.194-0.346-0.311c-0.098-0.116-0.171-0.239-0.219-0.37s-0.072-0.271-0.072-0.42
				c0-0.388,0.14-0.689,0.42-0.907c0.28-0.217,0.647-0.326,1.1-0.326c0.342,0,0.772,0.108,1.292,0.324l-0.237,0.77
				c-0.33-0.26-0.662-0.391-0.995-0.391c-0.198,0-0.366,0.047-0.502,0.141s-0.204,0.213-0.204,0.356
				c0,0.303,0.171,0.532,0.513,0.688l0.596,0.273c0.365,0.167,0.631,0.358,0.798,0.573c0.166,0.214,0.25,0.482,0.25,0.805
				c0,0.423-0.148,0.753-0.443,0.993s-0.704,0.359-1.227,0.359C156.439,133.061,155.975,132.938,155.54,132.693z"/>
		</g>
		<g i:knockout="Off">
			<path i:knockout="Off" fill="#15506E" d="M76.381,147.14L75.608,143l-1.414,4.234h-0.219L72.53,143l-0.758,4.141h-0.828
				l1.203-6.438h0.406l1.539,4.703l1.414-4.703h0.391l1.313,6.438H76.381z"/>
			<path i:knockout="Off" fill="#15506E" d="M80.517,146.609c-0.334,0.417-0.847,0.625-1.537,0.625c-0.37,0-0.691-0.134-0.962-0.402
				s-0.407-0.602-0.407-1.001c0-0.478,0.209-0.881,0.628-1.211c0.418-0.33,0.952-0.495,1.601-0.495c0.176,0,0.376,0.037,0.599,0.109
				c0-0.76-0.34-1.141-1.021-1.141c-0.522,0-0.924,0.141-1.206,0.422l-0.352-0.703c0.158-0.128,0.377-0.239,0.656-0.331
				c0.279-0.092,0.546-0.138,0.801-0.138c0.682,0,1.177,0.155,1.486,0.465c0.309,0.311,0.463,0.803,0.463,1.479v1.685
				c0,0.413,0.125,0.687,0.375,0.825v0.422c-0.34,0-0.594-0.047-0.763-0.142C80.711,146.982,80.59,146.827,80.517,146.609z
				 M80.438,144.828c-0.266-0.052-0.451-0.078-0.558-0.078c-0.425,0-0.771,0.108-1.04,0.325s-0.402,0.473-0.402,0.769
				c0,0.489,0.291,0.734,0.872,0.734c0.425,0,0.801-0.203,1.128-0.609V144.828z"/>
			<path i:knockout="Off" fill="#15506E" d="M85.464,147.14v-2.739c0-0.501-0.076-0.853-0.227-1.053s-0.404-0.301-0.759-0.301
				c-0.19,0-0.39,0.058-0.598,0.172c-0.208,0.114-0.368,0.255-0.479,0.422v3.5h-0.828v-4.703h0.569l0.263,0.606
				c0.274-0.467,0.723-0.7,1.345-0.7c1.028,0,1.542,0.627,1.542,1.882v2.915H85.464z"/>
			<path i:knockout="Off" fill="#15506E" d="M90.163,146.609c-0.335,0.417-0.847,0.625-1.537,0.625c-0.37,0-0.691-0.134-0.962-0.402
				s-0.407-0.602-0.407-1.001c0-0.478,0.209-0.881,0.627-1.211c0.419-0.33,0.952-0.495,1.602-0.495c0.176,0,0.376,0.037,0.599,0.109
				c0-0.76-0.34-1.141-1.021-1.141c-0.521,0-0.924,0.141-1.205,0.422l-0.352-0.703c0.158-0.128,0.376-0.239,0.656-0.331
				c0.279-0.092,0.546-0.138,0.801-0.138c0.682,0,1.177,0.155,1.485,0.465c0.309,0.311,0.463,0.803,0.463,1.479v1.685
				c0,0.413,0.125,0.687,0.375,0.825v0.422c-0.34,0-0.594-0.047-0.762-0.142C90.356,146.982,90.236,146.827,90.163,146.609z
				 M90.084,144.828c-0.266-0.052-0.452-0.078-0.558-0.078c-0.425,0-0.771,0.108-1.04,0.325s-0.403,0.473-0.403,0.769
				c0,0.489,0.291,0.734,0.872,0.734c0.425,0,0.801-0.203,1.128-0.609V144.828z"/>
			<path i:knockout="Off" fill="#15506E" d="M92.047,148.429l0.452-0.664c0.486,0.323,0.934,0.484,1.343,0.484
				c0.377,0,0.675-0.065,0.893-0.195s0.327-0.292,0.327-0.484c0-0.38-0.275-0.57-0.824-0.57c-0.094,0-0.264,0.023-0.509,0.07
				c-0.246,0.047-0.437,0.07-0.574,0.07c-0.667,0-1-0.254-1-0.761c0-0.156,0.079-0.298,0.235-0.425s0.351-0.219,0.583-0.274
				c-0.66-0.311-0.99-0.849-0.99-1.616c0-0.491,0.171-0.901,0.514-1.229s0.765-0.492,1.269-0.492c0.462,0,0.823,0.095,1.084,0.286
				l0.417-0.504l0.544,0.516l-0.508,0.379c0.214,0.278,0.321,0.642,0.321,1.09c0,0.475-0.148,0.873-0.443,1.195
				s-0.682,0.507-1.161,0.554l-0.688,0.068c-0.082,0.009-0.192,0.041-0.33,0.096s-0.207,0.127-0.207,0.216
				c0,0.122,0.143,0.183,0.43,0.183c0.125,0,0.321-0.023,0.587-0.07s0.463-0.07,0.592-0.07c0.462,0,0.822,0.11,1.081,0.332
				c0.259,0.221,0.388,0.528,0.388,0.921c0,0.434-0.194,0.783-0.582,1.05c-0.388,0.266-0.879,0.4-1.473,0.4
				c-0.305,0-0.625-0.054-0.962-0.162S92.252,148.583,92.047,148.429z M93.825,143.015c-0.289,0-0.525,0.103-0.708,0.307
				c-0.182,0.205-0.273,0.453-0.273,0.745c0,0.328,0.088,0.599,0.265,0.813c0.176,0.215,0.415,0.322,0.716,0.322
				c0.294,0,0.525-0.104,0.691-0.313c0.166-0.209,0.25-0.483,0.25-0.822c0-0.292-0.09-0.54-0.269-0.745
				C94.317,143.118,94.093,143.015,93.825,143.015z"/>
			<path i:knockout="Off" fill="#15506E" d="M100.687,144.875h-3.387c0,0.551,0.15,0.974,0.451,1.27
				c0.266,0.258,0.607,0.387,1.024,0.387c0.476,0,0.872-0.141,1.19-0.422l0.35,0.609c-0.128,0.128-0.326,0.239-0.591,0.332
				c-0.333,0.122-0.704,0.184-1.112,0.184c-0.589,0-1.09-0.201-1.501-0.603c-0.458-0.443-0.687-1.039-0.687-1.788
				c0-0.777,0.235-1.401,0.706-1.871c0.421-0.419,0.919-0.629,1.496-0.629c0.669,0,1.194,0.189,1.574,0.569
				c0.368,0.365,0.552,0.848,0.552,1.451C100.752,144.548,100.73,144.719,100.687,144.875z M98.669,143.046
				c-0.37,0-0.681,0.121-0.932,0.362c-0.239,0.229-0.375,0.515-0.407,0.856h2.594c0-0.338-0.105-0.621-0.315-0.848
				C99.379,143.17,99.065,143.046,98.669,143.046z"/>
			<path i:knockout="Off" fill="#15506E" d="M104.63,147.14v-0.347c-0.29,0.284-0.712,0.425-1.267,0.425
				c-0.589,0-1.067-0.211-1.434-0.632c-0.367-0.421-0.55-0.984-0.55-1.687c0-0.706,0.211-1.308,0.633-1.807s0.925-0.749,1.508-0.749
				c0.487,0,0.856,0.114,1.108,0.343V140.5h0.828v6.641H104.63z M104.63,143.52c-0.211-0.315-0.501-0.474-0.868-0.474
				c-0.449,0-0.813,0.167-1.091,0.5c-0.277,0.333-0.416,0.757-0.416,1.271c0,1.132,0.517,1.697,1.551,1.697
				c0.132,0,0.291-0.042,0.476-0.125c0.185-0.083,0.301-0.172,0.348-0.266V143.52z"/>
			<path i:knockout="Off" fill="#15506E" d="M110.081,146.808l-0.294,0.426h-0.416V140.5h0.828v2.279
				c0.079-0.108,0.228-0.208,0.445-0.299s0.432-0.136,0.643-0.136c0.643,0,1.164,0.223,1.563,0.669
				c0.399,0.446,0.599,1.01,0.599,1.69c0,0.787-0.2,1.405-0.6,1.855c-0.4,0.451-0.942,0.676-1.625,0.676
				c-0.222,0-0.44-0.042-0.654-0.125C110.354,147.025,110.191,146.925,110.081,146.808z M110.199,143.417v2.722
				c0,0.047,0.104,0.125,0.312,0.231s0.366,0.161,0.475,0.161c0.567,0,0.974-0.137,1.22-0.41c0.246-0.273,0.369-0.731,0.369-1.375
				c0-0.534-0.144-0.951-0.43-1.251c-0.287-0.299-0.673-0.449-1.159-0.449c-0.103,0-0.246,0.044-0.429,0.132
				C110.374,143.267,110.255,143.346,110.199,143.417z"/>
			<path i:knockout="Off" fill="#15506E" d="M116.186,147.939c-0.108,0.298-0.337,0.547-0.684,0.746s-0.735,0.299-1.163,0.299v-0.75
				c0.347,0,0.645-0.081,0.893-0.243c0.248-0.163,0.373-0.361,0.373-0.595c0-0.258-0.045-0.512-0.136-0.762
				c-0.091-0.25-0.209-0.56-0.353-0.928l-1.277-3.27h0.859l1.383,3.634l1.242-3.634h0.859L116.186,147.939z"/>
			<path i:knockout="Off" fill="#15506E" d="M122.473,144.659v2.481h-0.875v-6.44c0.664-0.029,1.064-0.044,1.202-0.044
				c1.866,0,2.798,0.625,2.798,1.876c0,1.447-0.825,2.171-2.476,2.171C123.022,144.703,122.806,144.688,122.473,144.659z
				 M122.473,141.497v2.365c0.371,0.029,0.567,0.044,0.588,0.044c1.087,0,1.631-0.427,1.631-1.281c0-0.781-0.58-1.172-1.741-1.172
				C122.833,141.453,122.674,141.467,122.473,141.497z"/>
			<path i:knockout="Off" fill="#15506E" d="M131.476,147.14L130.702,143l-1.414,4.234h-0.219L127.624,143l-0.758,4.141h-0.828
				l1.203-6.438h0.406l1.539,4.703l1.414-4.703h0.391l1.313,6.438H131.476z"/>
			<path i:knockout="Off" fill="#15506E" d="M137.111,140.937l-0.293,0.751c-0.281-0.199-0.722-0.298-1.324-0.298
				c-0.564,0-1.016,0.243-1.357,0.728c-0.34,0.485-0.51,1.11-0.51,1.876c0,0.73,0.174,1.323,0.524,1.777
				c0.35,0.455,0.801,0.682,1.354,0.682c0.602,0,1.065-0.214,1.39-0.641l0.482,0.672c-0.509,0.511-1.164,0.766-1.965,0.766
				c-0.839,0-1.5-0.303-1.983-0.909s-0.724-1.406-0.724-2.399c0-0.96,0.257-1.759,0.771-2.395c0.514-0.635,1.179-0.953,1.995-0.953
				C136.17,140.593,136.716,140.708,137.111,140.937z"/>
		</g>
		<g i:knockout="Off">
			<path i:knockout="Off" fill="#15506E" d="M71.522,161.313v-6.438h0.875v5.641h2.922v0.797H71.522z"/>
			<path i:knockout="Off" fill="#15506E" d="M76.423,161.313v-4h-0.641v-0.703h1.469v4.703H76.423z M76.874,154.829
				c0.143,0,0.265,0.05,0.366,0.151c0.101,0.101,0.151,0.222,0.151,0.362c0,0.144-0.051,0.266-0.151,0.367
				c-0.101,0.101-0.223,0.151-0.366,0.151c-0.141,0-0.262-0.05-0.362-0.151c-0.101-0.101-0.151-0.223-0.151-0.367
				c0-0.143,0.05-0.265,0.149-0.364C76.609,154.879,76.73,154.829,76.874,154.829z"/>
			<path i:knockout="Off" fill="#15506E" d="M84.021,161.313v-2.981c0-0.742-0.321-1.113-0.963-1.113
				c-0.202,0-0.392,0.063-0.567,0.187s-0.296,0.266-0.36,0.424v3.483h-0.828v-3.346c0-0.231-0.087-0.414-0.262-0.547
				s-0.405-0.2-0.692-0.2c-0.167,0-0.346,0.065-0.534,0.195c-0.189,0.13-0.323,0.273-0.402,0.43v3.469h-0.828v-4.703h0.543
				l0.276,0.547c0.321-0.427,0.723-0.641,1.205-0.641c0.672,0,1.142,0.208,1.411,0.625c0.093-0.178,0.267-0.326,0.521-0.446
				c0.254-0.119,0.515-0.179,0.784-0.179c0.485,0,0.86,0.145,1.126,0.433c0.266,0.289,0.398,0.694,0.398,1.216v3.148H84.021z"/>
			<path i:knockout="Off" fill="#15506E" d="M86.46,161.313v-4h-0.641v-0.703h1.469v4.703H86.46z M86.911,154.829
				c0.143,0,0.265,0.05,0.366,0.151c0.101,0.101,0.151,0.222,0.151,0.362c0,0.144-0.051,0.266-0.151,0.367
				c-0.101,0.101-0.223,0.151-0.366,0.151c-0.141,0-0.262-0.05-0.362-0.151c-0.101-0.101-0.151-0.223-0.151-0.367
				c0-0.143,0.05-0.265,0.149-0.364C86.646,154.879,86.768,154.829,86.911,154.829z"/>
			<path i:knockout="Off" fill="#15506E" d="M88.917,157.267H88.37v-0.656h0.547v-0.99l0.828-0.323v1.313h1.297v0.656h-1.297v2.341
				c0,0.396,0.067,0.678,0.201,0.846c0.134,0.167,0.35,0.25,0.648,0.25c0.215,0,0.438-0.052,0.667-0.156l0.124,0.729
				c-0.346,0.087-0.726,0.131-1.14,0.131c-0.373,0-0.688-0.138-0.944-0.416s-0.385-0.627-0.385-1.05V157.267z"/>
			<path i:knockout="Off" fill="#15506E" d="M96.138,159.048h-3.387c0,0.551,0.15,0.974,0.451,1.27
				c0.265,0.258,0.606,0.387,1.024,0.387c0.476,0,0.873-0.141,1.19-0.422l0.35,0.609c-0.128,0.128-0.325,0.239-0.591,0.332
				c-0.333,0.123-0.703,0.184-1.111,0.184c-0.59,0-1.09-0.201-1.501-0.603c-0.458-0.443-0.687-1.039-0.687-1.787
				c0-0.778,0.235-1.401,0.706-1.871c0.421-0.419,0.919-0.629,1.495-0.629c0.67,0,1.194,0.19,1.574,0.569
				c0.368,0.365,0.553,0.849,0.553,1.451C96.204,158.722,96.182,158.892,96.138,159.048z M94.121,157.22
				c-0.371,0-0.681,0.121-0.932,0.362c-0.239,0.23-0.375,0.516-0.407,0.857h2.594c0-0.338-0.105-0.621-0.315-0.848
				C94.831,157.343,94.517,157.22,94.121,157.22z"/>
			<path i:knockout="Off" fill="#15506E" d="M100.082,161.313v-0.347c-0.291,0.284-0.712,0.425-1.267,0.425
				c-0.589,0-1.067-0.21-1.434-0.632c-0.366-0.422-0.549-0.984-0.549-1.687c0-0.706,0.211-1.308,0.633-1.808
				c0.422-0.499,0.925-0.749,1.509-0.749c0.486,0,0.855,0.114,1.108,0.343v-2.187h0.828v6.641H100.082z M100.082,157.693
				c-0.211-0.316-0.501-0.474-0.868-0.474c-0.45,0-0.813,0.167-1.09,0.5c-0.278,0.333-0.417,0.757-0.417,1.272
				c0,1.131,0.517,1.697,1.551,1.697c0.132,0,0.291-0.042,0.476-0.125s0.301-0.171,0.348-0.265V157.693z"/>
			<path i:knockout="Off" fill="#15506E" d="M108.385,156.985l-0.416,0.594c-0.085-0.085-0.237-0.167-0.454-0.244
				c-0.217-0.077-0.43-0.116-0.639-0.116c-0.458,0-0.82,0.16-1.088,0.478s-0.403,0.755-0.403,1.311c0,0.552,0.136,0.973,0.408,1.262
				c0.272,0.29,0.649,0.434,1.132,0.434c0.374,0,0.751-0.146,1.132-0.438l0.329,0.703c-0.447,0.292-1.001,0.438-1.662,0.438
				c-0.64,0-1.169-0.215-1.587-0.647s-0.626-1.016-0.626-1.752c0-0.751,0.218-1.354,0.655-1.81c0.437-0.455,1.035-0.682,1.794-0.682
				c0.244,0,0.509,0.051,0.794,0.153S108.25,156.877,108.385,156.985z"/>
			<path i:knockout="Off" fill="#15506E" d="M112.185,161.313v-2.959c0-0.352-0.087-0.629-0.261-0.831s-0.418-0.303-0.733-0.303
				c-0.204,0-0.408,0.06-0.613,0.178s-0.362,0.257-0.471,0.415v3.5h-0.828v-6.641h0.828v2.45c0.111-0.173,0.292-0.317,0.54-0.433
				c0.248-0.115,0.504-0.173,0.769-0.173c0.499,0,0.89,0.165,1.173,0.493s0.425,0.776,0.425,1.345v2.959H112.185z"/>
			<path i:knockout="Off" fill="#15506E" d="M118.146,159.048h-3.387c0,0.551,0.15,0.974,0.451,1.27
				c0.265,0.258,0.606,0.387,1.024,0.387c0.476,0,0.873-0.141,1.19-0.422l0.35,0.609c-0.128,0.128-0.325,0.239-0.591,0.332
				c-0.333,0.123-0.703,0.184-1.111,0.184c-0.59,0-1.09-0.201-1.501-0.603c-0.458-0.443-0.687-1.039-0.687-1.787
				c0-0.778,0.235-1.401,0.706-1.871c0.421-0.419,0.919-0.629,1.495-0.629c0.67,0,1.194,0.19,1.574,0.569
				c0.368,0.365,0.553,0.849,0.553,1.451C118.212,158.722,118.19,158.892,118.146,159.048z M116.128,157.22
				c-0.371,0-0.681,0.121-0.932,0.362c-0.239,0.23-0.375,0.516-0.407,0.857h2.594c0-0.338-0.105-0.621-0.315-0.848
				C116.838,157.343,116.525,157.22,116.128,157.22z"/>
			<path i:knockout="Off" fill="#15506E" d="M122.667,156.985l-0.416,0.594c-0.085-0.085-0.237-0.167-0.454-0.244
				c-0.217-0.077-0.43-0.116-0.639-0.116c-0.458,0-0.82,0.16-1.088,0.478s-0.403,0.755-0.403,1.311c0,0.552,0.136,0.973,0.408,1.262
				c0.272,0.29,0.649,0.434,1.132,0.434c0.374,0,0.751-0.146,1.132-0.438l0.329,0.703c-0.447,0.292-1.001,0.438-1.662,0.438
				c-0.64,0-1.169-0.215-1.587-0.647s-0.626-1.016-0.626-1.752c0-0.751,0.218-1.354,0.655-1.81c0.437-0.455,1.035-0.682,1.794-0.682
				c0.244,0,0.509,0.051,0.794,0.153S122.532,156.877,122.667,156.985z"/>
			<path i:knockout="Off" fill="#15506E" d="M126.592,161.313l-1.473-2.354l-0.73,0.751v1.603h-0.828v-6.641h0.828v4.116
				l1.813-2.178h0.969l-1.509,1.788l1.837,2.916H126.592z"/>
			<path i:knockout="Off" fill="#15506E" d="M128.21,159.095v-0.766h1.875v0.766H128.21z"/>
			<path i:knockout="Off" fill="#15506E" d="M131.812,161.313v-4h-0.641v-0.703h1.469v4.703H131.812z M132.263,154.829
				c0.143,0,0.265,0.05,0.366,0.151c0.101,0.101,0.151,0.222,0.151,0.362c0,0.144-0.051,0.266-0.151,0.367
				c-0.101,0.101-0.223,0.151-0.366,0.151c-0.141,0-0.262-0.05-0.362-0.151c-0.101-0.101-0.151-0.223-0.151-0.367
				c0-0.143,0.05-0.265,0.149-0.364C131.998,154.879,132.119,154.829,132.263,154.829z"/>
			<path i:knockout="Off" fill="#15506E" d="M136.862,161.313v-2.74c0-0.501-0.076-0.852-0.227-1.053s-0.404-0.301-0.759-0.301
				c-0.19,0-0.39,0.057-0.598,0.171c-0.208,0.114-0.368,0.255-0.479,0.422v3.5h-0.828v-4.703h0.569l0.263,0.606
				c0.274-0.467,0.723-0.7,1.345-0.7c1.028,0,1.542,0.627,1.542,1.882v2.915H136.862z"/>
			<path i:knockout="Off" fill="#15506E" d="M144.145,157.409c-0.181-0.126-0.364-0.189-0.548-0.189
				c-0.296,0-0.554,0.137-0.774,0.41s-0.331,0.603-0.331,0.987v2.696h-0.828v-4.703h0.828v0.75c0.304-0.563,0.756-0.844,1.355-0.844
				c0.148,0,0.364,0.026,0.645,0.079L144.145,157.409z"/>
			<path i:knockout="Off" fill="#15506E" d="M145.88,156.61v3.003c0,0.727,0.315,1.09,0.946,1.09c0.275,0,0.528-0.079,0.757-0.237
				c0.229-0.158,0.38-0.341,0.453-0.55v-3.307h0.828v4.703h-0.828v-0.65c-0.094,0.185-0.282,0.355-0.564,0.51
				c-0.283,0.156-0.558,0.234-0.828,0.234c-0.515,0-0.909-0.148-1.183-0.444s-0.41-0.717-0.41-1.262v-3.091H145.88z"/>
			<path i:knockout="Off" fill="#15506E" d="M150.079,159.986v-5.313h0.828v5.17c0,0.252,0.072,0.451,0.216,0.596
				c0.144,0.145,0.332,0.218,0.565,0.218v0.75C150.615,161.407,150.079,160.933,150.079,159.986z"/>
			<path i:knockout="Off" fill="#15506E" d="M156.62,159.048h-3.387c0,0.551,0.15,0.974,0.451,1.27
				c0.266,0.258,0.607,0.387,1.024,0.387c0.476,0,0.872-0.141,1.19-0.422l0.35,0.609c-0.128,0.128-0.326,0.239-0.591,0.332
				c-0.333,0.123-0.704,0.184-1.112,0.184c-0.589,0-1.09-0.201-1.501-0.603c-0.458-0.443-0.687-1.039-0.687-1.787
				c0-0.778,0.235-1.401,0.706-1.871c0.421-0.419,0.919-0.629,1.496-0.629c0.669,0,1.194,0.19,1.574,0.569
				c0.368,0.365,0.552,0.849,0.552,1.451C156.686,158.722,156.664,158.892,156.62,159.048z M154.603,157.22
				c-0.37,0-0.681,0.121-0.932,0.362c-0.239,0.23-0.375,0.516-0.407,0.857h2.594c0-0.338-0.105-0.621-0.315-0.848
				C155.313,157.343,154.999,157.22,154.603,157.22z"/>
			<path i:knockout="Off" fill="#15506E" d="M157.267,161.04l0.294-0.789c0.464,0.302,0.838,0.453,1.122,0.453
				c0.514,0,0.771-0.217,0.771-0.652c0-0.312-0.249-0.579-0.745-0.802c-0.383-0.176-0.641-0.31-0.773-0.4s-0.249-0.194-0.347-0.311
				c-0.098-0.116-0.171-0.239-0.219-0.37c-0.048-0.13-0.072-0.271-0.072-0.42c0-0.388,0.14-0.689,0.42-0.907
				c0.28-0.217,0.647-0.326,1.1-0.326c0.341,0,0.772,0.108,1.292,0.324l-0.237,0.77c-0.33-0.26-0.662-0.391-0.995-0.391
				c-0.199,0-0.366,0.047-0.502,0.141c-0.136,0.094-0.204,0.213-0.204,0.356c0,0.303,0.171,0.532,0.513,0.688l0.596,0.273
				c0.365,0.167,0.631,0.358,0.797,0.573c0.167,0.214,0.25,0.482,0.25,0.805c0,0.423-0.147,0.753-0.442,0.993
				s-0.704,0.359-1.227,0.359C158.166,161.407,157.702,161.285,157.267,161.04z"/>
		</g>
	</g>
	<g id="datebar" i:layer="yes" i:dimmedPercent="3" i:rgbTrio="#FFFFFFFF4F00">
		<path i:knockout="Off" fill="#15506E" d="M429.449,81.467l-4.252,5.669H0l4.252-5.669L0,75.798h425.197L429.449,81.467z"/>
		<g i:knockout="Off">
			<path i:knockout="Off" fill="#C8D4E3" d="M5.436,6.734L2.092,2.016v4.625H1.264V0.203h0.359l3.25,4.453V0.203h0.828v6.531H5.436z
				"/>
			<path i:knockout="Off" fill="#C8D4E3" d="M6.632,4.278c0-0.728,0.195-1.315,0.585-1.763S8.122,1.844,8.76,1.844
				c0.672,0,1.194,0.215,1.565,0.645s0.557,1.026,0.557,1.789c0,0.761-0.19,1.36-0.57,1.799C9.932,6.515,9.414,6.734,8.76,6.734
				c-0.67,0-1.192-0.221-1.566-0.665C6.819,5.626,6.632,5.03,6.632,4.278z M7.507,4.278c0,1.18,0.417,1.769,1.252,1.769
				c0.39,0,0.694-0.158,0.916-0.474c0.221-0.315,0.332-0.747,0.332-1.295c0-1.164-0.416-1.747-1.248-1.747
				c-0.381,0-0.685,0.155-0.912,0.465S7.507,3.734,7.507,4.278z"/>
			<path i:knockout="Off" fill="#C8D4E3" d="M13.462,6.734h-0.219l-2.016-4.813h0.922l1.234,3.297l1.266-3.297h0.875L13.462,6.734z"
				/>
			<path i:knockout="Off" fill="#C8D4E3" d="M20.487,6.641V1.699l-1.313,0.816V1.688c0.331-0.166,0.684-0.395,1.058-0.686
				c0.374-0.291,0.664-0.567,0.869-0.83h0.261v6.469H20.487z"/>
			<path i:knockout="Off" fill="#C8D4E3" d="M24.567,3.065c-0.271-0.146-0.493-0.35-0.665-0.611s-0.258-0.531-0.258-0.809
				c0-0.478,0.162-0.855,0.485-1.134s0.742-0.417,1.255-0.417c0.554,0,0.982,0.139,1.287,0.417s0.457,0.658,0.457,1.139
				c0,0.281-0.093,0.567-0.277,0.859c-0.185,0.291-0.399,0.506-0.643,0.644c0.77,0.434,1.154,1.003,1.154,1.709
				c0,0.595-0.179,1.055-0.535,1.382c-0.357,0.326-0.847,0.49-1.47,0.49c-1.299,0-1.948-0.624-1.948-1.872
				c0-0.36,0.111-0.715,0.333-1.063C23.966,3.45,24.24,3.206,24.567,3.065z M25.254,3.447c-0.646,0.349-0.969,0.82-0.969,1.414
				c0,0.319,0.1,0.586,0.299,0.801c0.199,0.215,0.458,0.323,0.774,0.323c0.328,0,0.599-0.105,0.811-0.316s0.319-0.48,0.319-0.808
				c0-0.237-0.073-0.46-0.22-0.67C26.122,3.982,25.784,3.734,25.254,3.447z M25.642,2.793c0.397-0.375,0.597-0.762,0.597-1.164
				c0-0.24-0.08-0.431-0.239-0.573s-0.366-0.213-0.62-0.213c-0.573,0-0.859,0.265-0.859,0.794
				C24.52,2.031,24.894,2.416,25.642,2.793z"/>
		</g>
		<g i:knockout="Off">
			<path i:knockout="Off" fill="#15506E" d="M59.299,6.641h-1.294V0.2c0.824-0.029,1.353-0.044,1.583-0.044
				c0.898,0,1.608,0.273,2.132,0.82c0.523,0.547,0.785,1.274,0.785,2.183C62.505,5.48,61.436,6.641,59.299,6.641z M58.88,0.997V5.8
				c0.196,0.029,0.438,0.044,0.729,0.044c0.614,0,1.097-0.23,1.448-0.691c0.351-0.46,0.526-1.1,0.526-1.919
				c0-1.521-0.683-2.281-2.049-2.281C59.452,0.953,59.234,0.968,58.88,0.997z"/>
			<path i:knockout="Off" fill="#15506E" d="M67.412,4.375h-3.387c0,0.551,0.15,0.974,0.451,1.27
				c0.265,0.258,0.606,0.387,1.024,0.387c0.476,0,0.873-0.141,1.19-0.422l0.35,0.609c-0.128,0.128-0.325,0.239-0.591,0.332
				c-0.333,0.123-0.703,0.184-1.111,0.184c-0.59,0-1.09-0.201-1.501-0.603c-0.458-0.443-0.687-1.039-0.687-1.787
				c0-0.778,0.235-1.401,0.706-1.871c0.421-0.419,0.919-0.629,1.495-0.629c0.67,0,1.194,0.19,1.574,0.569
				c0.368,0.365,0.553,0.849,0.553,1.451C67.478,4.049,67.456,4.219,67.412,4.375z M65.394,2.547c-0.371,0-0.681,0.121-0.932,0.362
				c-0.239,0.23-0.375,0.516-0.407,0.857h2.594c0-0.338-0.105-0.621-0.315-0.848C66.104,2.67,65.791,2.547,65.394,2.547z"/>
			<path i:knockout="Off" fill="#15506E" d="M71.933,2.313l-0.416,0.594c-0.085-0.085-0.237-0.167-0.454-0.244
				c-0.217-0.077-0.43-0.116-0.639-0.116c-0.458,0-0.82,0.16-1.088,0.478s-0.403,0.755-0.403,1.311c0,0.552,0.136,0.973,0.408,1.262
				c0.272,0.29,0.649,0.434,1.132,0.434c0.374,0,0.751-0.146,1.132-0.438l0.329,0.703c-0.447,0.292-1.001,0.438-1.662,0.438
				c-0.64,0-1.169-0.215-1.587-0.647s-0.626-1.016-0.626-1.752c0-0.751,0.218-1.354,0.655-1.81c0.437-0.455,1.035-0.682,1.794-0.682
				c0.244,0,0.509,0.051,0.794,0.153S71.798,2.205,71.933,2.313z"/>
			<path i:knockout="Off" fill="#15506E" d="M75.226,3.232c0-0.926,0.188-1.681,0.563-2.264s0.903-0.875,1.583-0.875
				c0.674,0,1.18,0.243,1.519,0.729s0.508,1.336,0.508,2.549c0,1.043-0.178,1.864-0.532,2.463c-0.354,0.6-0.873,0.899-1.556,0.899
				c-0.683,0-1.201-0.242-1.554-0.725S75.226,4.6,75.226,3.232z M76.101,3.311c0,1.782,0.382,2.673,1.147,2.673
				c0.438,0,0.76-0.198,0.966-0.592c0.206-0.396,0.309-1.088,0.309-2.077c0-0.682-0.04-1.182-0.119-1.501
				c-0.08-0.319-0.208-0.561-0.384-0.725c-0.177-0.164-0.4-0.246-0.67-0.246C76.517,0.844,76.101,1.667,76.101,3.311z"/>
			<path i:knockout="Off" fill="#15506E" d="M79.961,6.641V6.465l2.022-3.085c0.423-0.646,0.634-1.195,0.634-1.646
				c0-0.594-0.33-0.891-0.991-0.891c-0.234,0-0.453,0.062-0.658,0.186c-0.205,0.124-0.353,0.281-0.445,0.47l-0.563-0.466
				c0.099-0.287,0.292-0.516,0.58-0.686c0.289-0.17,0.637-0.255,1.046-0.255c0.611,0,1.09,0.143,1.435,0.428
				s0.518,0.688,0.518,1.208c0,0.482-0.231,1.09-0.694,1.824l-1.446,2.29h2.516v0.797H79.961z"/>
		</g>
		<g i:knockout="Off">
			<path i:knockout="Off" fill="#15506E" d="M144.338,6.641h-1.294V0.2c0.825-0.029,1.352-0.044,1.583-0.044
				c0.897,0,1.608,0.273,2.131,0.82c0.523,0.547,0.785,1.274,0.785,2.183C147.544,5.48,146.476,6.641,144.338,6.641z M143.919,0.997
				V5.8c0.196,0.029,0.439,0.044,0.729,0.044c0.614,0,1.097-0.23,1.448-0.691c0.352-0.46,0.527-1.1,0.527-1.919
				c0-1.521-0.683-2.281-2.049-2.281C144.491,0.953,144.273,0.968,143.919,0.997z"/>
			<path i:knockout="Off" fill="#15506E" d="M152.451,4.375h-3.387c0,0.551,0.15,0.974,0.451,1.27
				c0.266,0.258,0.607,0.387,1.024,0.387c0.476,0,0.872-0.141,1.19-0.422l0.35,0.609c-0.128,0.128-0.326,0.239-0.591,0.332
				c-0.333,0.123-0.704,0.184-1.112,0.184c-0.589,0-1.09-0.201-1.501-0.603c-0.458-0.443-0.687-1.039-0.687-1.787
				c0-0.778,0.235-1.401,0.706-1.871c0.421-0.419,0.919-0.629,1.496-0.629c0.669,0,1.194,0.19,1.574,0.569
				c0.368,0.365,0.552,0.849,0.552,1.451C152.517,4.049,152.495,4.219,152.451,4.375z M150.434,2.547
				c-0.37,0-0.681,0.121-0.932,0.362c-0.239,0.23-0.375,0.516-0.407,0.857h2.594c0-0.338-0.105-0.621-0.315-0.848
				C151.144,2.67,150.83,2.547,150.434,2.547z"/>
			<path i:knockout="Off" fill="#15506E" d="M156.973,2.313l-0.416,0.594c-0.085-0.085-0.236-0.167-0.453-0.244
				c-0.217-0.077-0.43-0.116-0.64-0.116c-0.457,0-0.82,0.16-1.089,0.478s-0.402,0.755-0.402,1.311c0,0.552,0.136,0.973,0.408,1.262
				c0.272,0.29,0.649,0.434,1.132,0.434c0.374,0,0.751-0.146,1.131-0.438l0.329,0.703c-0.447,0.292-1.001,0.438-1.661,0.438
				c-0.641,0-1.169-0.215-1.587-0.647s-0.627-1.016-0.627-1.752c0-0.751,0.218-1.354,0.655-1.81
				c0.437-0.455,1.035-0.682,1.794-0.682c0.244,0,0.509,0.051,0.794,0.153S156.837,2.205,156.973,2.313z"/>
			<path i:knockout="Off" fill="#15506E" d="M160.281,6.641V6.465l2.022-3.085c0.423-0.646,0.634-1.195,0.634-1.646
				c0-0.594-0.331-0.891-0.991-0.891c-0.233,0-0.453,0.062-0.657,0.186c-0.205,0.124-0.354,0.281-0.446,0.47l-0.563-0.466
				c0.098-0.287,0.292-0.516,0.581-0.686c0.288-0.17,0.637-0.255,1.045-0.255c0.612,0,1.09,0.143,1.435,0.428
				c0.345,0.285,0.517,0.688,0.517,1.208c0,0.482-0.232,1.09-0.695,1.824l-1.446,2.29h2.516v0.797H160.281z"/>
			<path i:knockout="Off" fill="#15506E" d="M165.188,6.188l0.422-0.672c0.287,0.313,0.651,0.469,1.09,0.469
				c0.814,0,1.222-0.398,1.222-1.196c0-0.363-0.119-0.658-0.357-0.885c-0.238-0.227-0.554-0.341-0.947-0.341h-0.071V2.844h0.04
				c0.744,0,1.117-0.326,1.117-0.978c0-0.682-0.349-1.022-1.046-1.022c-0.38,0-0.682,0.125-0.907,0.375l-0.391-0.594
				c0.272-0.354,0.726-0.531,1.363-0.531c0.561,0,1.018,0.15,1.372,0.45s0.531,0.684,0.531,1.151c0,0.357-0.1,0.673-0.299,0.948
				s-0.433,0.459-0.701,0.553c0.372,0.121,0.668,0.325,0.888,0.614c0.221,0.289,0.331,0.64,0.331,1.05
				c0,0.599-0.189,1.062-0.567,1.387c-0.378,0.326-0.908,0.489-1.591,0.489c-0.287,0-0.568-0.054-0.844-0.161
				C165.567,6.466,165.349,6.337,165.188,6.188z"/>
		</g>
		<g i:knockout="Off">
			<path i:knockout="Off" fill="#15506E" d="M228.121,5.359h0.766c0.071,0.385,0.306,0.578,0.705,0.578
				c0.396,0,0.674-0.084,0.835-0.252c0.161-0.169,0.242-0.64,0.242-1.413V0.203h0.875v4.038c0,0.88-0.143,1.515-0.427,1.906
				c-0.285,0.392-0.791,0.587-1.52,0.587c-0.42,0-0.764-0.125-1.033-0.374S228.147,5.778,228.121,5.359z"/>
			<path i:knockout="Off" fill="#15506E" d="M235.457,6.109c-0.335,0.417-0.847,0.625-1.537,0.625c-0.37,0-0.691-0.134-0.962-0.402
				s-0.407-0.602-0.407-1c0-0.478,0.209-0.882,0.627-1.212c0.419-0.33,0.952-0.495,1.602-0.495c0.176,0,0.376,0.037,0.599,0.109
				c0-0.76-0.34-1.141-1.021-1.141c-0.521,0-0.924,0.141-1.205,0.422L232.8,2.313c0.158-0.128,0.376-0.239,0.656-0.331
				c0.279-0.092,0.546-0.138,0.801-0.138c0.682,0,1.177,0.155,1.485,0.465c0.309,0.31,0.463,0.803,0.463,1.479v1.685
				c0,0.412,0.125,0.688,0.375,0.825v0.422c-0.34,0-0.594-0.047-0.762-0.142C235.65,6.483,235.53,6.327,235.457,6.109z
				 M235.378,4.328c-0.266-0.052-0.452-0.078-0.558-0.078c-0.425,0-0.771,0.108-1.04,0.325s-0.403,0.473-0.403,0.769
				c0,0.489,0.291,0.734,0.872,0.734c0.425,0,0.801-0.203,1.128-0.609V4.328z"/>
			<path i:knockout="Off" fill="#15506E" d="M240.404,6.641v-2.74c0-0.501-0.076-0.852-0.227-1.053s-0.404-0.301-0.758-0.301
				c-0.191,0-0.391,0.057-0.599,0.171s-0.368,0.255-0.479,0.422v3.5h-0.828V1.938h0.569l0.263,0.606
				c0.274-0.467,0.723-0.7,1.345-0.7c1.027,0,1.542,0.627,1.542,1.882v2.915H240.404z"/>
			<path i:knockout="Off" fill="#15506E" d="M246.736,6.641V1.699l-1.313,0.816V1.688c0.332-0.166,0.684-0.395,1.058-0.686
				c0.374-0.291,0.663-0.567,0.869-0.83h0.261v6.469H246.736z"/>
			<path i:knockout="Off" fill="#15506E" d="M249.752,6.188l0.422-0.672c0.287,0.313,0.651,0.469,1.09,0.469
				c0.814,0,1.222-0.398,1.222-1.196c0-0.363-0.119-0.658-0.357-0.885c-0.238-0.227-0.554-0.341-0.947-0.341h-0.071V2.844h0.04
				c0.744,0,1.117-0.326,1.117-0.978c0-0.682-0.349-1.022-1.046-1.022c-0.38,0-0.682,0.125-0.907,0.375l-0.391-0.594
				c0.272-0.354,0.726-0.531,1.363-0.531c0.561,0,1.018,0.15,1.372,0.45s0.531,0.684,0.531,1.151c0,0.357-0.1,0.673-0.299,0.948
				s-0.433,0.459-0.701,0.553c0.372,0.121,0.668,0.325,0.888,0.614c0.221,0.289,0.331,0.64,0.331,1.05
				c0,0.599-0.189,1.062-0.567,1.387c-0.378,0.326-0.908,0.489-1.591,0.489c-0.287,0-0.568-0.054-0.844-0.161
				C250.132,6.466,249.914,6.337,249.752,6.188z"/>
		</g>
		<g i:knockout="Off">
			<path i:knockout="Off" fill="#15506E" d="M314.117,1v1.781h2.266v0.75h-2.266v3.109h-0.875V0.203h3.969V1H314.117z"/>
			<path i:knockout="Off" fill="#15506E" d="M321.854,4.375h-3.388c0,0.551,0.15,0.974,0.451,1.27
				c0.265,0.258,0.606,0.387,1.024,0.387c0.475,0,0.872-0.141,1.189-0.422l0.351,0.609c-0.128,0.128-0.325,0.239-0.591,0.332
				c-0.333,0.123-0.703,0.184-1.111,0.184c-0.59,0-1.09-0.201-1.502-0.603c-0.457-0.443-0.687-1.039-0.687-1.787
				c0-0.778,0.235-1.401,0.706-1.871c0.421-0.419,0.919-0.629,1.495-0.629c0.67,0,1.194,0.19,1.574,0.569
				c0.368,0.365,0.553,0.849,0.553,1.451C321.919,4.049,321.896,4.219,321.854,4.375z M319.836,2.547
				c-0.371,0-0.682,0.121-0.932,0.362c-0.24,0.23-0.375,0.516-0.407,0.857h2.594c0-0.338-0.104-0.621-0.315-0.848
				C320.545,2.67,320.232,2.547,319.836,2.547z"/>
			<path i:knockout="Off" fill="#15506E" d="M323.521,6.308l-0.293,0.426h-0.416V0h0.828v2.279c0.078-0.108,0.227-0.208,0.444-0.299
				s0.433-0.136,0.643-0.136c0.644,0,1.165,0.223,1.563,0.669c0.399,0.446,0.6,1.009,0.6,1.69c0,0.787-0.201,1.405-0.601,1.856
				c-0.4,0.45-0.942,0.675-1.625,0.675c-0.222,0-0.44-0.042-0.655-0.125C323.795,6.526,323.633,6.425,323.521,6.308z M323.641,2.917
				v2.722c0,0.047,0.104,0.124,0.311,0.231c0.208,0.107,0.366,0.161,0.475,0.161c0.568,0,0.975-0.136,1.221-0.41
				c0.246-0.273,0.369-0.731,0.369-1.374c0-0.535-0.145-0.952-0.431-1.251c-0.287-0.3-0.673-0.45-1.159-0.45
				c-0.103,0-0.245,0.044-0.428,0.132C323.814,2.767,323.695,2.847,323.641,2.917z"/>
			<path i:knockout="Off" fill="#15506E" d="M330.225,3.232c0-0.926,0.188-1.681,0.563-2.264c0.375-0.583,0.902-0.875,1.582-0.875
				c0.675,0,1.181,0.243,1.519,0.729c0.339,0.486,0.508,1.336,0.508,2.549c0,1.043-0.177,1.864-0.531,2.463
				c-0.355,0.6-0.874,0.899-1.557,0.899s-1.201-0.242-1.554-0.725C330.401,5.526,330.225,4.6,330.225,3.232z M331.1,3.311
				c0,1.782,0.383,2.673,1.147,2.673c0.438,0,0.76-0.198,0.966-0.592c0.206-0.396,0.309-1.088,0.309-2.077
				c0-0.682-0.039-1.182-0.119-1.501c-0.079-0.319-0.207-0.561-0.383-0.725c-0.177-0.164-0.4-0.246-0.671-0.246
				C331.516,0.844,331.1,1.667,331.1,3.311z"/>
			<path i:knockout="Off" fill="#15506E" d="M335.148,6.188l0.422-0.672c0.287,0.313,0.65,0.469,1.09,0.469
				c0.814,0,1.223-0.398,1.223-1.196c0-0.363-0.119-0.658-0.357-0.885s-0.554-0.341-0.947-0.341h-0.07V2.844h0.039
				c0.744,0,1.117-0.326,1.117-0.978c0-0.682-0.35-1.022-1.047-1.022c-0.38,0-0.682,0.125-0.906,0.375l-0.391-0.594
				c0.271-0.354,0.726-0.531,1.363-0.531c0.561,0,1.018,0.15,1.371,0.45s0.531,0.684,0.531,1.151c0,0.357-0.1,0.673-0.299,0.948
				s-0.434,0.459-0.701,0.553c0.371,0.121,0.668,0.325,0.888,0.614c0.221,0.289,0.331,0.64,0.331,1.05
				c0,0.599-0.189,1.062-0.567,1.387c-0.378,0.326-0.908,0.489-1.591,0.489c-0.287,0-0.568-0.054-0.844-0.161
				C335.527,6.466,335.309,6.337,335.148,6.188z"/>
		</g>
	</g>
	<g id="releases" i:layer="yes" i:dimmedPercent="3" i:rgbTrio="#4F00FFFF4F00">
		<path i:knockout="Off" fill="#FF5C28" stroke="#15506E" stroke-width="1.4173" d="M113.387,85.719h-5.669V61.625h5.669V85.719z"/>
		<path i:knockout="Off" fill="#FF5C28" stroke="#15506E" stroke-width="1.4173" d="M198.426,85.719h-5.669V61.625h5.669V85.719z"/>
		<path i:knockout="Off" fill="#FF5C28" stroke="#15506E" stroke-width="1.4173" d="M283.465,85.719h-5.669V61.625h5.669V85.719z"/>
		<path i:knockout="Off" fill="#FF5C28" stroke="#15506E" stroke-width="1.4173" d="M368.504,85.719h-5.669V33.278h5.669V85.719z"/>
		<path i:knockout="Off" fill="#FF5C28" d="M112.678,85.719H70.867v-8.504h41.811V85.719z"/>
		<path i:knockout="Off" fill="#FF5C28" d="M197.717,85.719h-41.811v-8.504h41.811V85.719z"/>
		<path i:knockout="Off" fill="#FF5C28" d="M282.757,85.719h-41.812v-8.504h41.812V85.719z"/>
		<path i:knockout="Off" fill="#FF5C28" d="M367.796,85.719h-41.812v-8.504h41.812V85.719z"/>
		<g i:knockout="Off">
			<path i:knockout="Off" fill="#15506E" d="M92.096,55.462l-1.51-2.56l-1.553,2.56h-0.891l2.004-3.304l-1.848-3.134l0.859,0.004
				l1.439,2.387l1.451-2.391h0.891l-1.898,3.128l1.992,3.31H92.096z"/>
			<path i:knockout="Off" fill="#15506E" d="M96.355,54.931c-0.335,0.417-0.847,0.625-1.537,0.625c-0.37,0-0.69-0.134-0.962-0.402
				s-0.407-0.602-0.407-1.001c0-0.478,0.209-0.881,0.627-1.211c0.418-0.33,0.952-0.495,1.601-0.495c0.177,0,0.376,0.037,0.6,0.109
				c0-0.76-0.341-1.141-1.021-1.141c-0.522,0-0.924,0.141-1.206,0.422l-0.352-0.703c0.158-0.128,0.376-0.239,0.656-0.331
				c0.279-0.092,0.546-0.138,0.801-0.138c0.682,0,1.177,0.155,1.486,0.465c0.309,0.311,0.463,0.803,0.463,1.479v1.685
				c0,0.413,0.125,0.687,0.375,0.825v0.422c-0.34,0-0.594-0.047-0.763-0.142S96.429,55.149,96.355,54.931z M96.277,53.15
				c-0.266-0.052-0.452-0.078-0.558-0.078c-0.425,0-0.771,0.108-1.04,0.325s-0.402,0.473-0.402,0.769
				c0,0.489,0.29,0.734,0.871,0.734c0.425,0,0.801-0.203,1.129-0.609V53.15z"/>
			<path i:knockout="Off" fill="#15506E" d="M100.956,51.558c-0.182-0.126-0.364-0.189-0.548-0.189c-0.295,0-0.553,0.137-0.774,0.41
				s-0.331,0.603-0.331,0.987v2.696h-0.828v-4.703h0.828v0.75c0.304-0.563,0.755-0.844,1.355-0.844c0.149,0,0.364,0.026,0.645,0.079
				L100.956,51.558z"/>
			<path i:knockout="Off" fill="#15506E" d="M104.582,54.931c-0.335,0.417-0.847,0.625-1.537,0.625c-0.37,0-0.69-0.134-0.962-0.402
				s-0.407-0.602-0.407-1.001c0-0.478,0.209-0.881,0.627-1.211c0.418-0.33,0.952-0.495,1.601-0.495c0.177,0,0.376,0.037,0.6,0.109
				c0-0.76-0.341-1.141-1.021-1.141c-0.522,0-0.924,0.141-1.206,0.422l-0.352-0.703c0.158-0.128,0.376-0.239,0.656-0.331
				c0.279-0.092,0.546-0.138,0.801-0.138c0.682,0,1.177,0.155,1.486,0.465c0.309,0.311,0.463,0.803,0.463,1.479v1.685
				c0,0.413,0.125,0.687,0.375,0.825v0.422c-0.34,0-0.594-0.047-0.763-0.142S104.655,55.149,104.582,54.931z M104.504,53.15
				c-0.266-0.052-0.452-0.078-0.558-0.078c-0.425,0-0.771,0.108-1.04,0.325s-0.402,0.473-0.402,0.769
				c0,0.489,0.29,0.734,0.871,0.734c0.425,0,0.801-0.203,1.129-0.609V53.15z"/>
			<path i:knockout="Off" fill="#15506E" d="M108.438,56.261c-0.108,0.298-0.336,0.547-0.684,0.746
				c-0.348,0.199-0.735,0.299-1.163,0.299v-0.75c0.347,0,0.645-0.081,0.893-0.243c0.248-0.163,0.373-0.361,0.373-0.595
				c0-0.258-0.046-0.512-0.137-0.762s-0.208-0.56-0.353-0.928l-1.276-3.27h0.859l1.383,3.634l1.242-3.634h0.859L108.438,56.261z"/>
			<path i:knockout="Off" fill="#15506E" d="M113.749,54.931c-0.335,0.417-0.847,0.625-1.537,0.625c-0.37,0-0.69-0.134-0.962-0.402
				s-0.407-0.602-0.407-1.001c0-0.478,0.209-0.881,0.627-1.211c0.418-0.33,0.952-0.495,1.601-0.495c0.177,0,0.376,0.037,0.6,0.109
				c0-0.76-0.341-1.141-1.021-1.141c-0.522,0-0.924,0.141-1.206,0.422l-0.352-0.703c0.158-0.128,0.376-0.239,0.656-0.331
				c0.279-0.092,0.546-0.138,0.801-0.138c0.682,0,1.177,0.155,1.486,0.465c0.309,0.311,0.463,0.803,0.463,1.479v1.685
				c0,0.413,0.125,0.687,0.375,0.825v0.422c-0.34,0-0.594-0.047-0.763-0.142S113.822,55.149,113.749,54.931z M113.671,53.15
				c-0.266-0.052-0.452-0.078-0.558-0.078c-0.425,0-0.771,0.108-1.04,0.325s-0.402,0.473-0.402,0.769
				c0,0.489,0.29,0.734,0.871,0.734c0.425,0,0.801-0.203,1.129-0.609V53.15z"/>
			<path i:knockout="Off" fill="#15506E" d="M118.204,52.053c0-0.926,0.188-1.68,0.563-2.263c0.375-0.583,0.903-0.875,1.583-0.875
				c0.674,0,1.181,0.243,1.519,0.729c0.339,0.486,0.508,1.336,0.508,2.549c0,1.043-0.177,1.864-0.532,2.464
				c-0.355,0.599-0.874,0.898-1.556,0.898s-1.201-0.242-1.554-0.725C118.381,54.348,118.204,53.422,118.204,52.053z M119.079,52.132
				c0,1.783,0.383,2.674,1.147,2.674c0.438,0,0.76-0.197,0.966-0.593c0.206-0.395,0.309-1.087,0.309-2.076
				c0-0.682-0.04-1.183-0.119-1.501c-0.079-0.319-0.207-0.56-0.384-0.724c-0.176-0.164-0.399-0.246-0.67-0.246
				C119.495,49.666,119.079,50.488,119.079,52.132z"/>
			<path i:knockout="Off" fill="#15506E" d="M124.189,54.228c0.181,0,0.335,0.064,0.464,0.194c0.128,0.129,0.192,0.285,0.192,0.468
				c0,0.182-0.064,0.339-0.192,0.47s-0.283,0.196-0.464,0.196s-0.335-0.065-0.464-0.196c-0.128-0.131-0.192-0.288-0.192-0.47
				c0-0.183,0.064-0.339,0.192-0.468C123.854,54.292,124.009,54.228,124.189,54.228z"/>
			<path i:knockout="Off" fill="#15506E" d="M127.666,55.572l-0.422-0.469c0.256-0.102,0.63-0.447,1.122-1.034
				s0.763-1.041,0.813-1.36c-0.241,0.231-0.581,0.347-1.018,0.347c-0.57,0-1.027-0.182-1.371-0.545s-0.516-0.863-0.516-1.499
				c0-0.63,0.177-1.137,0.531-1.521c0.354-0.384,0.797-0.576,1.332-0.576c1.415,0,2.122,0.936,2.122,2.806
				c0,0.779-0.277,1.576-0.831,2.391C128.874,54.927,128.287,55.414,127.666,55.572z M129.338,51.039
				c0-0.915-0.377-1.373-1.131-1.373c-0.316,0-0.567,0.119-0.75,0.357c-0.184,0.238-0.275,0.554-0.275,0.945
				c0,0.407,0.097,0.731,0.291,0.974c0.194,0.243,0.443,0.364,0.749,0.364C128.966,52.306,129.338,51.884,129.338,51.039z"/>
			<path i:knockout="Off" fill="#15506E" d="M132.214,54.228c0.181,0,0.335,0.064,0.464,0.194c0.128,0.129,0.192,0.285,0.192,0.468
				c0,0.182-0.064,0.339-0.192,0.47s-0.283,0.196-0.464,0.196s-0.335-0.065-0.464-0.196c-0.128-0.131-0.192-0.288-0.192-0.47
				c0-0.183,0.064-0.339,0.192-0.468C131.879,54.292,132.033,54.228,132.214,54.228z"/>
			<path i:knockout="Off" fill="#15506E" d="M135.862,55.462h-0.969c0.216-0.689,0.578-1.602,1.087-2.736s0.975-2.103,1.397-2.904
				h-3.016v-0.828h4.156v0.343l-0.565,1.117c-0.189,0.378-0.389,0.793-0.596,1.245c-0.208,0.452-0.411,0.912-0.609,1.38
				c-0.199,0.47-0.373,0.905-0.521,1.307C136.077,54.787,135.956,55.146,135.862,55.462z"/>
		</g>
		<g i:knockout="Off">
			<path i:knockout="Off" fill="#15506E" d="M177.135,55.462l-1.51-2.56l-1.553,2.56h-0.891l2.004-3.304l-1.848-3.134l0.859,0.004
				l1.439,2.387l1.451-2.391h0.891l-1.898,3.128l1.992,3.31H177.135z"/>
			<path i:knockout="Off" fill="#15506E" d="M181.395,54.931c-0.335,0.417-0.847,0.625-1.537,0.625c-0.37,0-0.69-0.134-0.962-0.402
				s-0.407-0.602-0.407-1.001c0-0.478,0.209-0.881,0.627-1.211c0.418-0.33,0.952-0.495,1.601-0.495c0.177,0,0.376,0.037,0.6,0.109
				c0-0.76-0.341-1.141-1.021-1.141c-0.522,0-0.924,0.141-1.206,0.422l-0.352-0.703c0.158-0.128,0.376-0.239,0.656-0.331
				c0.279-0.092,0.546-0.138,0.801-0.138c0.682,0,1.177,0.155,1.486,0.465c0.309,0.311,0.463,0.803,0.463,1.479v1.685
				c0,0.413,0.125,0.687,0.375,0.825v0.422c-0.34,0-0.594-0.047-0.763-0.142S181.468,55.149,181.395,54.931z M181.316,53.15
				c-0.266-0.052-0.452-0.078-0.558-0.078c-0.425,0-0.771,0.108-1.04,0.325s-0.402,0.473-0.402,0.769
				c0,0.489,0.29,0.734,0.871,0.734c0.425,0,0.801-0.203,1.129-0.609V53.15z"/>
			<path i:knockout="Off" fill="#15506E" d="M185.995,51.558c-0.182-0.126-0.364-0.189-0.548-0.189c-0.295,0-0.553,0.137-0.774,0.41
				s-0.331,0.603-0.331,0.987v2.696h-0.828v-4.703h0.828v0.75c0.304-0.563,0.755-0.844,1.355-0.844c0.149,0,0.364,0.026,0.645,0.079
				L185.995,51.558z"/>
			<path i:knockout="Off" fill="#15506E" d="M189.621,54.931c-0.335,0.417-0.847,0.625-1.537,0.625c-0.37,0-0.69-0.134-0.962-0.402
				s-0.407-0.602-0.407-1.001c0-0.478,0.209-0.881,0.627-1.211c0.418-0.33,0.952-0.495,1.601-0.495c0.177,0,0.376,0.037,0.6,0.109
				c0-0.76-0.341-1.141-1.021-1.141c-0.522,0-0.924,0.141-1.206,0.422l-0.352-0.703c0.158-0.128,0.376-0.239,0.656-0.331
				c0.279-0.092,0.546-0.138,0.801-0.138c0.682,0,1.177,0.155,1.486,0.465c0.309,0.311,0.463,0.803,0.463,1.479v1.685
				c0,0.413,0.125,0.687,0.375,0.825v0.422c-0.34,0-0.594-0.047-0.763-0.142S189.694,55.149,189.621,54.931z M189.543,53.15
				c-0.266-0.052-0.452-0.078-0.558-0.078c-0.425,0-0.771,0.108-1.04,0.325s-0.402,0.473-0.402,0.769
				c0,0.489,0.29,0.734,0.871,0.734c0.425,0,0.801-0.203,1.129-0.609V53.15z"/>
			<path i:knockout="Off" fill="#15506E" d="M193.478,56.261c-0.108,0.298-0.336,0.547-0.684,0.746
				c-0.348,0.199-0.735,0.299-1.163,0.299v-0.75c0.347,0,0.645-0.081,0.893-0.243c0.248-0.163,0.373-0.361,0.373-0.595
				c0-0.258-0.046-0.512-0.137-0.762s-0.208-0.56-0.353-0.928l-1.276-3.27h0.859l1.383,3.634l1.242-3.634h0.859L193.478,56.261z"/>
			<path i:knockout="Off" fill="#15506E" d="M198.788,54.931c-0.335,0.417-0.847,0.625-1.537,0.625c-0.37,0-0.69-0.134-0.962-0.402
				s-0.407-0.602-0.407-1.001c0-0.478,0.209-0.881,0.627-1.211c0.418-0.33,0.952-0.495,1.601-0.495c0.177,0,0.376,0.037,0.6,0.109
				c0-0.76-0.341-1.141-1.021-1.141c-0.522,0-0.924,0.141-1.206,0.422l-0.352-0.703c0.158-0.128,0.376-0.239,0.656-0.331
				c0.279-0.092,0.546-0.138,0.801-0.138c0.682,0,1.177,0.155,1.486,0.465c0.309,0.311,0.463,0.803,0.463,1.479v1.685
				c0,0.413,0.125,0.687,0.375,0.825v0.422c-0.34,0-0.594-0.047-0.763-0.142S198.861,55.149,198.788,54.931z M198.71,53.15
				c-0.266-0.052-0.452-0.078-0.558-0.078c-0.425,0-0.771,0.108-1.04,0.325s-0.402,0.473-0.402,0.769
				c0,0.489,0.29,0.734,0.871,0.734c0.425,0,0.801-0.203,1.129-0.609V53.15z"/>
			<path i:knockout="Off" fill="#15506E" d="M203.243,52.053c0-0.926,0.188-1.68,0.563-2.263c0.375-0.583,0.903-0.875,1.583-0.875
				c0.674,0,1.181,0.243,1.519,0.729c0.339,0.486,0.508,1.336,0.508,2.549c0,1.043-0.177,1.864-0.532,2.464
				c-0.355,0.599-0.874,0.898-1.556,0.898s-1.201-0.242-1.554-0.725C203.42,54.348,203.243,53.422,203.243,52.053z M204.118,52.132
				c0,1.783,0.383,2.674,1.147,2.674c0.438,0,0.76-0.197,0.966-0.593c0.206-0.395,0.309-1.087,0.309-2.076
				c0-0.682-0.04-1.183-0.119-1.501c-0.079-0.319-0.207-0.56-0.384-0.724c-0.176-0.164-0.399-0.246-0.67-0.246
				C204.534,49.666,204.118,50.488,204.118,52.132z"/>
			<path i:knockout="Off" fill="#15506E" d="M209.229,54.228c0.181,0,0.335,0.064,0.464,0.194c0.128,0.129,0.192,0.285,0.192,0.468
				c0,0.182-0.064,0.339-0.192,0.47s-0.283,0.196-0.464,0.196s-0.335-0.065-0.464-0.196c-0.128-0.131-0.192-0.288-0.192-0.47
				c0-0.183,0.064-0.339,0.192-0.468C208.894,54.292,209.048,54.228,209.229,54.228z"/>
			<path i:knockout="Off" fill="#15506E" d="M212.705,55.572l-0.422-0.469c0.256-0.102,0.63-0.447,1.122-1.034
				s0.763-1.041,0.813-1.36c-0.241,0.231-0.581,0.347-1.018,0.347c-0.57,0-1.027-0.182-1.371-0.545s-0.516-0.863-0.516-1.499
				c0-0.63,0.177-1.137,0.531-1.521c0.354-0.384,0.797-0.576,1.332-0.576c1.415,0,2.122,0.936,2.122,2.806
				c0,0.779-0.277,1.576-0.831,2.391C213.913,54.927,213.326,55.414,212.705,55.572z M214.377,51.039
				c0-0.915-0.377-1.373-1.131-1.373c-0.316,0-0.567,0.119-0.75,0.357c-0.184,0.238-0.275,0.554-0.275,0.945
				c0,0.407,0.097,0.731,0.291,0.974c0.194,0.243,0.443,0.364,0.749,0.364C214.005,52.306,214.377,51.884,214.377,51.039z"/>
			<path i:knockout="Off" fill="#15506E" d="M217.253,54.228c0.181,0,0.335,0.064,0.464,0.194c0.128,0.129,0.192,0.285,0.192,0.468
				c0,0.182-0.064,0.339-0.192,0.47s-0.283,0.196-0.464,0.196s-0.335-0.065-0.464-0.196c-0.128-0.131-0.192-0.288-0.192-0.47
				c0-0.183,0.064-0.339,0.192-0.468C216.918,54.292,217.072,54.228,217.253,54.228z"/>
			<path i:knockout="Off" fill="#15506E" d="M220.559,51.887c-0.271-0.146-0.493-0.35-0.665-0.611
				c-0.172-0.261-0.258-0.53-0.258-0.809c0-0.478,0.162-0.855,0.485-1.134c0.324-0.278,0.742-0.418,1.255-0.418
				c0.554,0,0.982,0.14,1.287,0.418s0.457,0.657,0.457,1.138c0,0.281-0.092,0.568-0.277,0.859c-0.185,0.292-0.399,0.506-0.643,0.644
				c0.77,0.434,1.154,1.003,1.154,1.709c0,0.595-0.178,1.056-0.535,1.382c-0.357,0.327-0.847,0.49-1.47,0.49
				c-1.299,0-1.948-0.624-1.948-1.872c0-0.36,0.111-0.715,0.333-1.063S220.231,52.027,220.559,51.887z M221.245,52.269
				c-0.646,0.348-0.969,0.819-0.969,1.413c0,0.319,0.1,0.586,0.299,0.802c0.199,0.215,0.458,0.322,0.774,0.322
				c0.328,0,0.599-0.105,0.812-0.316c0.212-0.21,0.318-0.48,0.318-0.808c0-0.237-0.073-0.46-0.22-0.669
				C222.113,52.804,221.775,52.556,221.245,52.269z M221.633,51.615c0.397-0.375,0.596-0.763,0.596-1.163
				c0-0.24-0.08-0.431-0.239-0.573c-0.16-0.142-0.366-0.213-0.621-0.213c-0.573,0-0.859,0.265-0.859,0.795
				C220.511,50.852,220.885,51.237,221.633,51.615z"/>
		</g>
		<g i:knockout="Off">
			<path i:knockout="Off" fill="#15506E" d="M262.174,55.462l-1.51-2.56l-1.553,2.56h-0.891l2.004-3.304l-1.848-3.134l0.859,0.004
				l1.439,2.387l1.451-2.391h0.891l-1.898,3.128l1.992,3.31H262.174z"/>
			<path i:knockout="Off" fill="#15506E" d="M266.434,54.931c-0.335,0.417-0.847,0.625-1.537,0.625c-0.37,0-0.69-0.134-0.962-0.402
				s-0.407-0.602-0.407-1.001c0-0.478,0.209-0.881,0.627-1.211c0.419-0.33,0.953-0.495,1.602-0.495c0.177,0,0.376,0.037,0.6,0.109
				c0-0.76-0.341-1.141-1.021-1.141c-0.521,0-0.924,0.141-1.205,0.422l-0.352-0.703c0.158-0.128,0.377-0.239,0.656-0.331
				c0.279-0.092,0.546-0.138,0.801-0.138c0.682,0,1.177,0.155,1.486,0.465c0.309,0.311,0.463,0.803,0.463,1.479v1.685
				c0,0.413,0.125,0.687,0.375,0.825v0.422c-0.34,0-0.594-0.047-0.763-0.142S266.507,55.149,266.434,54.931z M266.355,53.15
				c-0.266-0.052-0.451-0.078-0.558-0.078c-0.425,0-0.771,0.108-1.04,0.325s-0.402,0.473-0.402,0.769
				c0,0.489,0.29,0.734,0.871,0.734c0.425,0,0.801-0.203,1.129-0.609V53.15z"/>
			<path i:knockout="Off" fill="#15506E" d="M271.034,51.558c-0.182-0.126-0.364-0.189-0.548-0.189c-0.296,0-0.554,0.137-0.774,0.41
				s-0.331,0.603-0.331,0.987v2.696h-0.828v-4.703h0.828v0.75c0.304-0.563,0.756-0.844,1.355-0.844c0.148,0,0.363,0.026,0.645,0.079
				L271.034,51.558z"/>
			<path i:knockout="Off" fill="#15506E" d="M274.66,54.931c-0.335,0.417-0.847,0.625-1.537,0.625c-0.37,0-0.69-0.134-0.962-0.402
				s-0.407-0.602-0.407-1.001c0-0.478,0.209-0.881,0.627-1.211c0.419-0.33,0.953-0.495,1.602-0.495c0.177,0,0.376,0.037,0.6,0.109
				c0-0.76-0.341-1.141-1.021-1.141c-0.521,0-0.924,0.141-1.205,0.422l-0.352-0.703c0.158-0.128,0.377-0.239,0.656-0.331
				c0.279-0.092,0.546-0.138,0.801-0.138c0.682,0,1.177,0.155,1.486,0.465c0.309,0.311,0.463,0.803,0.463,1.479v1.685
				c0,0.413,0.125,0.687,0.375,0.825v0.422c-0.34,0-0.594-0.047-0.763-0.142S274.733,55.149,274.66,54.931z M274.582,53.15
				c-0.266-0.052-0.451-0.078-0.558-0.078c-0.425,0-0.771,0.108-1.04,0.325s-0.402,0.473-0.402,0.769
				c0,0.489,0.29,0.734,0.871,0.734c0.425,0,0.801-0.203,1.129-0.609V53.15z"/>
			<path i:knockout="Off" fill="#15506E" d="M278.517,56.261c-0.108,0.298-0.337,0.547-0.684,0.746
				c-0.348,0.199-0.735,0.299-1.163,0.299v-0.75c0.348,0,0.645-0.081,0.893-0.243c0.248-0.163,0.373-0.361,0.373-0.595
				c0-0.258-0.046-0.512-0.137-0.762s-0.209-0.56-0.353-0.928l-1.276-3.27h0.859l1.383,3.634l1.242-3.634h0.859L278.517,56.261z"/>
			<path i:knockout="Off" fill="#15506E" d="M283.827,54.931c-0.335,0.417-0.847,0.625-1.537,0.625c-0.37,0-0.69-0.134-0.962-0.402
				s-0.407-0.602-0.407-1.001c0-0.478,0.209-0.881,0.628-1.211c0.418-0.33,0.951-0.495,1.601-0.495c0.177,0,0.376,0.037,0.6,0.109
				c0-0.76-0.341-1.141-1.021-1.141c-0.522,0-0.924,0.141-1.206,0.422l-0.352-0.703c0.157-0.128,0.376-0.239,0.656-0.331
				c0.279-0.092,0.546-0.138,0.801-0.138c0.682,0,1.177,0.155,1.485,0.465c0.309,0.311,0.464,0.803,0.464,1.479v1.685
				c0,0.413,0.125,0.687,0.375,0.825v0.422c-0.34,0-0.595-0.047-0.763-0.142S283.9,55.149,283.827,54.931z M283.749,53.15
				c-0.266-0.052-0.452-0.078-0.558-0.078c-0.425,0-0.771,0.108-1.04,0.325s-0.402,0.473-0.402,0.769
				c0,0.489,0.29,0.734,0.871,0.734c0.425,0,0.801-0.203,1.129-0.609V53.15z"/>
			<path i:knockout="Off" fill="#15506E" d="M288.282,52.053c0-0.926,0.188-1.68,0.563-2.263c0.375-0.583,0.902-0.875,1.582-0.875
				c0.674,0,1.181,0.243,1.519,0.729c0.339,0.486,0.508,1.336,0.508,2.549c0,1.043-0.177,1.864-0.532,2.464
				c-0.354,0.599-0.873,0.898-1.556,0.898s-1.201-0.242-1.554-0.725C288.459,54.348,288.282,53.422,288.282,52.053z M289.157,52.132
				c0,1.783,0.383,2.674,1.147,2.674c0.438,0,0.76-0.197,0.966-0.593c0.206-0.395,0.309-1.087,0.309-2.076
				c0-0.682-0.04-1.183-0.119-1.501s-0.207-0.56-0.384-0.724c-0.176-0.164-0.399-0.246-0.67-0.246
				C289.573,49.666,289.157,50.488,289.157,52.132z"/>
			<path i:knockout="Off" fill="#15506E" d="M294.268,54.228c0.181,0,0.336,0.064,0.464,0.194c0.128,0.129,0.192,0.285,0.192,0.468
				c0,0.182-0.064,0.339-0.192,0.47s-0.283,0.196-0.464,0.196s-0.335-0.065-0.464-0.196c-0.128-0.131-0.192-0.288-0.192-0.47
				c0-0.183,0.064-0.339,0.192-0.468C293.933,54.292,294.087,54.228,294.268,54.228z"/>
			<path i:knockout="Off" fill="#15506E" d="M297.744,55.572l-0.422-0.469c0.256-0.102,0.63-0.447,1.122-1.034
				s0.763-1.041,0.813-1.36c-0.241,0.231-0.58,0.347-1.018,0.347c-0.57,0-1.027-0.182-1.371-0.545s-0.516-0.863-0.516-1.499
				c0-0.63,0.177-1.137,0.531-1.521c0.354-0.384,0.797-0.576,1.331-0.576c1.415,0,2.122,0.936,2.122,2.806
				c0,0.779-0.277,1.576-0.831,2.391C298.952,54.927,298.365,55.414,297.744,55.572z M299.416,51.039
				c0-0.915-0.377-1.373-1.131-1.373c-0.316,0-0.566,0.119-0.75,0.357s-0.275,0.554-0.275,0.945c0,0.407,0.097,0.731,0.291,0.974
				c0.193,0.243,0.442,0.364,0.748,0.364C299.044,52.306,299.416,51.884,299.416,51.039z"/>
			<path i:knockout="Off" fill="#15506E" d="M302.292,54.228c0.181,0,0.335,0.064,0.464,0.194c0.129,0.129,0.192,0.285,0.192,0.468
				c0,0.182-0.063,0.339-0.192,0.47s-0.283,0.196-0.464,0.196s-0.335-0.065-0.464-0.196c-0.128-0.131-0.192-0.288-0.192-0.47
				c0-0.183,0.064-0.339,0.192-0.468C301.957,54.292,302.111,54.228,302.292,54.228z"/>
			<path i:knockout="Off" fill="#15506E" d="M305.769,55.572l-0.422-0.469c0.256-0.102,0.63-0.447,1.122-1.034
				s0.764-1.041,0.813-1.36c-0.241,0.231-0.581,0.347-1.019,0.347c-0.569,0-1.026-0.182-1.37-0.545s-0.516-0.863-0.516-1.499
				c0-0.63,0.177-1.137,0.53-1.521s0.798-0.576,1.332-0.576c1.415,0,2.122,0.936,2.122,2.806c0,0.779-0.277,1.576-0.831,2.391
				C306.977,54.927,306.389,55.414,305.769,55.572z M307.44,51.039c0-0.915-0.377-1.373-1.131-1.373
				c-0.316,0-0.567,0.119-0.75,0.357c-0.184,0.238-0.275,0.554-0.275,0.945c0,0.407,0.097,0.731,0.29,0.974
				c0.194,0.243,0.443,0.364,0.749,0.364C307.068,52.306,307.44,51.884,307.44,51.039z"/>
		</g>
		<g i:knockout="Off">
			<path i:knockout="Off" fill="#15506E" d="M351.225,27.116l-1.51-2.56l-1.553,2.56h-0.891l2.005-3.304l-1.849-3.134l0.859,0.004
				l1.439,2.387l1.451-2.391h0.891l-1.898,3.128l1.992,3.31H351.225z"/>
			<path i:knockout="Off" fill="#15506E" d="M355.484,26.584c-0.334,0.417-0.847,0.625-1.536,0.625c-0.37,0-0.691-0.134-0.963-0.402
				s-0.407-0.602-0.407-1.001c0-0.478,0.209-0.881,0.628-1.211c0.419-0.33,0.952-0.495,1.602-0.495c0.176,0,0.376,0.037,0.599,0.109
				c0-0.76-0.34-1.141-1.021-1.141c-0.522,0-0.924,0.141-1.205,0.422l-0.353-0.703c0.158-0.128,0.377-0.239,0.656-0.331
				c0.279-0.092,0.547-0.138,0.801-0.138c0.682,0,1.178,0.155,1.486,0.465c0.309,0.311,0.463,0.803,0.463,1.479v1.685
				c0,0.413,0.125,0.687,0.375,0.825v0.422c-0.34,0-0.594-0.047-0.762-0.142C355.679,26.958,355.559,26.802,355.484,26.584z
				 M355.406,24.803c-0.266-0.052-0.451-0.078-0.558-0.078c-0.425,0-0.771,0.108-1.04,0.325c-0.268,0.217-0.402,0.473-0.402,0.769
				c0,0.489,0.291,0.734,0.872,0.734c0.425,0,0.801-0.203,1.128-0.609V24.803z"/>
			<path i:knockout="Off" fill="#15506E" d="M360.086,23.211c-0.182-0.126-0.365-0.189-0.549-0.189c-0.295,0-0.554,0.137-0.774,0.41
				s-0.331,0.603-0.331,0.987v2.696h-0.828v-4.703h0.828v0.75c0.305-0.563,0.756-0.844,1.355-0.844c0.148,0,0.364,0.026,0.645,0.079
				L360.086,23.211z"/>
			<path i:knockout="Off" fill="#15506E" d="M363.711,26.584c-0.334,0.417-0.847,0.625-1.536,0.625c-0.37,0-0.691-0.134-0.963-0.402
				s-0.407-0.602-0.407-1.001c0-0.478,0.209-0.881,0.628-1.211c0.419-0.33,0.952-0.495,1.602-0.495c0.176,0,0.376,0.037,0.599,0.109
				c0-0.76-0.34-1.141-1.021-1.141c-0.522,0-0.924,0.141-1.205,0.422l-0.353-0.703c0.158-0.128,0.377-0.239,0.656-0.331
				c0.279-0.092,0.547-0.138,0.801-0.138c0.682,0,1.178,0.155,1.486,0.465c0.309,0.311,0.463,0.803,0.463,1.479v1.685
				c0,0.413,0.125,0.687,0.375,0.825v0.422c-0.34,0-0.594-0.047-0.762-0.142C363.905,26.958,363.785,26.802,363.711,26.584z
				 M363.633,24.803c-0.266-0.052-0.451-0.078-0.558-0.078c-0.425,0-0.771,0.108-1.04,0.325c-0.268,0.217-0.402,0.473-0.402,0.769
				c0,0.489,0.291,0.734,0.872,0.734c0.425,0,0.801-0.203,1.128-0.609V24.803z"/>
			<path i:knockout="Off" fill="#15506E" d="M367.568,27.915c-0.109,0.298-0.337,0.547-0.685,0.746
				c-0.347,0.199-0.735,0.299-1.163,0.299v-0.75c0.348,0,0.646-0.081,0.894-0.243c0.248-0.163,0.372-0.361,0.372-0.595
				c0-0.258-0.045-0.512-0.137-0.762c-0.091-0.25-0.208-0.56-0.352-0.928l-1.277-3.27h0.859l1.383,3.634l1.242-3.634h0.859
				L367.568,27.915z"/>
			<path i:knockout="Off" fill="#15506E" d="M372.879,26.584c-0.335,0.417-0.848,0.625-1.537,0.625c-0.37,0-0.691-0.134-0.963-0.402
				s-0.407-0.602-0.407-1.001c0-0.478,0.21-0.881,0.628-1.211c0.418-0.33,0.952-0.495,1.602-0.495c0.176,0,0.376,0.037,0.599,0.109
				c0-0.76-0.34-1.141-1.021-1.141c-0.521,0-0.924,0.141-1.205,0.422l-0.353-0.703c0.158-0.128,0.377-0.239,0.656-0.331
				c0.279-0.092,0.547-0.138,0.802-0.138c0.682,0,1.177,0.155,1.485,0.465c0.309,0.311,0.463,0.803,0.463,1.479v1.685
				c0,0.413,0.125,0.687,0.375,0.825v0.422c-0.34,0-0.594-0.047-0.763-0.142C373.072,26.958,372.951,26.802,372.879,26.584z
				 M372.8,24.803c-0.266-0.052-0.451-0.078-0.558-0.078c-0.425,0-0.771,0.108-1.039,0.325c-0.27,0.217-0.403,0.473-0.403,0.769
				c0,0.489,0.291,0.734,0.872,0.734c0.425,0,0.801-0.203,1.128-0.609V24.803z"/>
			<path i:knockout="Off" fill="#15506E" d="M379.24,27.116v-4.941l-1.313,0.816v-0.828c0.331-0.166,0.684-0.395,1.058-0.686
				s0.663-0.568,0.869-0.83h0.261v6.469H379.24z"/>
			<path i:knockout="Off" fill="#15506E" d="M383.319,25.881c0.181,0,0.335,0.064,0.464,0.194c0.128,0.129,0.192,0.285,0.192,0.468
				c0,0.182-0.064,0.339-0.192,0.47c-0.129,0.131-0.283,0.196-0.464,0.196s-0.336-0.065-0.464-0.196
				c-0.129-0.131-0.192-0.288-0.192-0.47c0-0.183,0.063-0.339,0.192-0.468C382.983,25.946,383.139,25.881,383.319,25.881z"/>
			<path i:knockout="Off" fill="#15506E" d="M385.358,23.707c0-0.926,0.188-1.68,0.563-2.263s0.902-0.875,1.583-0.875
				c0.674,0,1.18,0.243,1.519,0.729c0.338,0.486,0.508,1.336,0.508,2.549c0,1.043-0.178,1.864-0.532,2.464
				c-0.354,0.599-0.873,0.898-1.557,0.898c-0.683,0-1.2-0.242-1.554-0.725C385.535,26.001,385.358,25.075,385.358,23.707z
				 M386.233,23.786c0,1.783,0.382,2.674,1.146,2.674c0.438,0,0.761-0.197,0.966-0.593c0.206-0.395,0.31-1.087,0.31-2.076
				c0-0.682-0.04-1.183-0.119-1.501c-0.08-0.319-0.208-0.56-0.384-0.724c-0.177-0.164-0.4-0.246-0.671-0.246
				C386.649,21.319,386.233,22.141,386.233,23.786z"/>
		</g>
		<path i:knockout="Off" fill="#FF977B" stroke="#15506E" stroke-width="1.4173" d="M425.197,43.2h-56.693v-9.921h56.693V43.2z"/>
	</g>
</svg>
